# Blender v2.63 (sub 0) OBJ File: 'apple.blend'
# www.blender.org
mtllib apple4.mtl
o Sphere
v -0.018820 24.266127 -0.989663
v -0.901890 24.266127 0.539859
v 0.864250 24.266127 0.539859
v -0.018820 24.266127 -0.989663
v -0.901890 24.266127 0.539859
v 0.864250 24.266127 0.539859
v -0.018820 25.323957 -0.989663
v -0.901890 25.323957 0.539859
v 0.864250 25.323957 0.539859
v -0.018820 26.664864 -2.605954
v -0.645192 27.132790 -1.627142
v 0.607552 27.132790 -1.627143
v -0.018820 27.189795 -5.152297
v -0.434130 27.762869 -4.717520
v 0.396490 27.762869 -4.717520
v -0.018820 24.266129 0.030018
v 3.678153 24.266127 7.110766
v -0.394266 24.266127 2.447817
v 0.634673 24.266127 5.169077
v 7.305930 24.266127 8.249180
v 10.001328 24.266127 7.499998
v 10.222886 24.266127 4.633901
v 8.290668 24.266127 1.471025
v 4.851693 24.266127 -0.301043
v 1.447421 24.266127 -0.452983
v -0.018820 24.486523 0.030018
v 3.678153 24.486521 7.110766
v -0.394266 24.486521 2.447817
v 0.634673 24.486521 5.169077
v 7.305930 24.486521 8.249180
v 10.001328 24.486521 7.499998
v 10.222886 24.486521 4.633901
v 8.290668 24.486521 1.471025
v 4.851693 24.486521 -0.301043
v 1.447421 24.486521 -0.452983
v -0.018820 24.266127 0.030018
v -5.583780 24.266125 -5.700237
v -0.349412 24.266125 -2.394320
v -2.112567 24.266125 -4.708463
v -9.385584 24.266125 -5.755336
v -11.754825 24.266125 -4.267673
v -11.148741 24.266125 -1.457644
v -8.393810 24.266125 1.021793
v -4.592007 24.266125 1.738075
v -1.286090 24.266125 0.911596
v -0.018820 24.486521 0.030018
v -5.583780 24.486519 -5.700237
v -0.349412 24.486519 -2.394320
v -2.112567 24.486519 -4.708463
v -9.385584 24.486519 -5.755336
v -11.754825 24.486519 -4.267673
v -11.148741 24.486519 -1.457644
v -8.393810 24.486519 1.021793
v -4.592007 24.486519 1.738075
v -1.286090 24.486519 0.911596
v -4.917521 24.212421 0.000000
v -9.086394 21.426870 0.000000
v -11.871946 17.257996 0.000000
v -12.850102 12.340474 0.000000
v -11.871946 7.422952 0.000000
v -9.086394 3.254081 0.000000
v -4.917522 0.468528 0.000000
v -4.258698 24.212421 -2.458760
v -7.869049 21.426870 -4.543196
v -10.281407 17.257996 -5.935972
v -11.128515 12.340474 -6.425050
v -10.281407 7.422952 -5.935972
v -7.869049 3.254081 -4.543196
v -4.258699 0.468528 -2.458760
v -2.458761 24.212421 -4.258697
v -4.543198 21.426870 -7.869047
v -5.935974 17.257996 -10.281404
v -6.425051 12.340474 -11.128512
v -5.935974 7.422952 -10.281404
v -4.543198 3.254081 -7.869047
v -2.458762 0.468528 -4.258697
v -0.000002 24.212421 -4.917519
v -0.000002 21.426870 -9.086392
v -0.000002 17.257996 -11.871943
v -0.000001 12.340474 -12.850099
v -0.000002 7.422952 -11.871943
v -0.000002 3.254081 -9.086392
v -0.000002 0.468528 -4.917520
v 2.458758 24.212421 -4.258697
v 4.543194 21.426870 -7.869047
v 5.935970 17.257996 -10.281404
v 6.425048 12.340474 -11.128511
v 5.935970 7.422952 -10.281404
v 4.543194 3.254081 -7.869047
v 2.458758 0.468528 -4.258697
v 4.258695 24.212421 -2.458759
v 7.869044 21.426870 -4.543196
v 10.281403 17.257996 -5.935971
v 11.128510 12.340474 -6.425049
v 10.281403 7.422952 -5.935971
v 7.869044 3.254081 -4.543196
v 4.258695 0.468528 -2.458760
v 4.917517 24.212421 0.000000
v 9.086390 21.426870 0.000000
v 11.871941 17.257996 0.000001
v 12.850097 12.340474 0.000001
v 11.871941 7.422952 0.000001
v 9.086390 3.254081 0.000000
v 4.917518 0.468528 0.000000
v 4.258694 24.212421 2.458760
v 7.869044 21.426870 4.543196
v 10.281402 17.257996 5.935972
v 11.128509 12.340474 6.425050
v 10.281402 7.422952 5.935972
v 7.869044 3.254081 4.543196
v 4.258695 0.468528 2.458760
v 2.458757 24.212421 4.258697
v 4.543194 21.426870 7.869047
v 5.935969 17.257996 10.281404
v 6.425046 12.340474 11.128511
v 5.935969 7.422952 10.281404
v 4.543194 3.254081 7.869047
v 2.458758 0.468528 4.258697
v -0.000002 24.212421 4.917519
v -0.000002 21.426870 9.086392
v -0.000003 17.257996 11.871943
v -0.000003 12.340474 12.850098
v -0.000003 7.422952 11.871943
v -0.000002 3.254081 9.086392
v -0.000002 0.468528 4.917520
v -2.458761 24.212421 4.258696
v -4.543198 21.426870 7.869047
v -5.935974 17.257996 10.281404
v -6.425052 12.340474 11.128510
v -5.935974 7.422952 10.281404
v -4.543198 3.254081 7.869047
v -2.458762 0.468528 4.258697
v -4.258698 24.212421 2.458759
v -7.869049 21.426870 4.543196
v -10.281407 17.257996 5.935971
v -11.128514 12.340474 6.425047
v -10.281407 7.422952 5.935971
v -7.869049 3.254081 4.543196
v -4.258699 0.468528 2.458760
vn -0.811572 0.542275 -0.217460
vn -0.948576 -0.188683 -0.254170
vn -0.549515 -0.822407 -0.147242
vn -0.549515 0.822407 -0.147242
vn -0.948576 0.188683 -0.254170
vn -0.811572 -0.542275 -0.217460
vn -0.694406 -0.188683 -0.694406
vn -0.402273 -0.822407 -0.402273
vn -0.402273 0.822407 -0.402273
vn -0.694406 0.188683 -0.694406
vn -0.594112 -0.542275 -0.594112
vn -0.594112 0.542275 -0.594112
vn -0.254170 -0.188683 -0.948576
vn -0.147242 -0.822407 -0.549515
vn -0.147242 0.822407 -0.549515
vn -0.254170 0.188683 -0.948576
vn -0.217460 -0.542275 -0.811572
vn -0.217460 0.542275 -0.811572
vn 0.254170 -0.188683 -0.948576
vn 0.147242 -0.822407 -0.549515
vn 0.147242 0.822407 -0.549515
vn 0.254170 0.188683 -0.948576
vn 0.217460 -0.542275 -0.811572
vn 0.217460 0.542275 -0.811572
vn 0.694406 -0.188683 -0.694406
vn 0.402273 -0.822407 -0.402273
vn 0.402273 0.822407 -0.402273
vn 0.694406 0.188683 -0.694406
vn 0.594112 -0.542275 -0.594112
vn 0.594112 0.542275 -0.594112
vn 0.948576 -0.188683 -0.254170
vn 0.549515 -0.822407 -0.147242
vn 0.549515 0.822407 -0.147242
vn 0.948576 0.188683 -0.254170
vn 0.811572 -0.542275 -0.217460
vn 0.811572 0.542275 -0.217460
vn 0.948576 -0.188683 0.254170
vn 0.549515 -0.822407 0.147242
vn 0.549515 0.822407 0.147242
vn 0.948576 0.188683 0.254170
vn 0.811572 -0.542275 0.217460
vn 0.811572 0.542275 0.217460
vn 0.694406 -0.188683 0.694406
vn 0.402273 -0.822407 0.402273
vn 0.402273 0.822407 0.402273
vn 0.694406 0.188683 0.694406
vn 0.594112 -0.542275 0.594112
vn 0.594112 0.542275 0.594112
vn 0.254170 -0.188683 0.948576
vn 0.147242 -0.822407 0.549515
vn 0.147242 0.822407 0.549515
vn 0.254170 0.188683 0.948576
vn 0.217460 -0.542275 0.811572
vn 0.217460 0.542275 0.811572
vn -0.254170 -0.188683 0.948576
vn -0.147242 -0.822407 0.549515
vn -0.147242 0.822407 0.549515
vn -0.254170 0.188683 0.948576
vn -0.217460 -0.542275 0.811572
vn -0.217460 0.542275 0.811572
vn -0.694406 -0.188683 0.694406
vn -0.402273 -0.822407 0.402273
vn -0.402273 0.822407 0.402273
vn -0.694406 0.188683 0.694406
vn -0.594112 -0.542275 0.594112
vn -0.594112 0.542275 0.594112
vn -0.948576 -0.188683 0.254170
vn -0.549515 -0.822407 0.147242
vn -0.549515 0.822407 0.147242
vn -0.948576 0.188683 0.254170
vn -0.811572 -0.542275 0.217460
vn -0.000000 1.000000 0.000000
vn -0.000000 -1.000000 0.000000
vn -0.811572 0.542275 0.217460
vn 0.000000 0.000000 0.000000
vn -0.866025 0.000000 0.500000
vn -0.866025 0.000000 -0.500000
vn 0.000000 0.000000 1.000000
vn 0.000000 0.767699 0.640811
vn -0.808837 0.423766 0.407682
vn -0.808837 -0.423766 -0.407682
vn -0.793521 -0.589630 -0.150533
vn 0.000000 0.979842 0.199774
vn -0.793521 0.589631 0.150533
vn 0.312876 0.000000 0.949794
vn -0.997025 0.000000 -0.077073
vn 0.988157 0.000000 0.153445
vn -0.853360 0.000000 0.521322
vn 0.935369 0.000000 -0.353673
vn -0.458054 0.000000 0.888925
vn 0.537847 0.000000 -0.843043
vn -0.044588 0.000000 0.999005
vn 0.299409 0.000000 -0.954125
vn -0.267796 0.000000 -0.963475
vn -0.000000 -1.000000 0.000003
vn -0.000000 -1.000000 0.000001
vn -0.000000 -1.000000 -0.000001
vn 0.000000 1.000000 -0.000003
vn 0.000000 1.000000 -0.000001
vn 0.000000 1.000000 0.000001
vn -0.571064 0.000000 -0.820906
vn 0.977521 0.000000 -0.210838
vn -0.990830 0.000000 0.135113
vn 0.668965 0.000000 -0.743294
vn -0.795432 0.000000 0.606043
vn 0.185148 0.000000 -0.982711
vn -0.274721 0.000000 0.961524
vn -0.242536 0.000000 -0.970142
vn -0.014491 0.000000 0.999895
vn 0.531768 0.000000 0.846890
vn -0.000000 -1.000000 -0.000002
vn 0.000000 1.000000 0.000002
usemtl Material.001
s off
f 64//1 65//1 58//1 57//1
f 66//2 67//2 60//2 59//2
f 68//3 69//3 62//3 61//3
f 63//4 64//4 57//4 56//4
f 65//5 66//5 59//5 58//5
f 67//6 68//6 61//6 60//6
f 73//7 74//7 67//7 66//7
f 75//8 76//8 69//8 68//8
f 70//9 71//9 64//9 63//9
f 72//10 73//10 66//10 65//10
f 74//11 75//11 68//11 67//11
f 71//12 72//12 65//12 64//12
f 80//13 81//13 74//13 73//13
f 82//14 83//14 76//14 75//14
f 77//15 78//15 71//15 70//15
f 79//16 80//16 73//16 72//16
f 81//17 82//17 75//17 74//17
f 78//18 79//18 72//18 71//18
f 87//19 88//19 81//19 80//19
f 89//20 90//20 83//20 82//20
f 84//21 85//21 78//21 77//21
f 86//22 87//22 80//22 79//22
f 88//23 89//23 82//23 81//23
f 85//24 86//24 79//24 78//24
f 94//25 95//25 88//25 87//25
f 96//26 97//26 90//26 89//26
f 91//27 92//27 85//27 84//27
f 93//28 94//28 87//28 86//28
f 95//29 96//29 89//29 88//29
f 92//30 93//30 86//30 85//30
f 101//31 102//31 95//31 94//31
f 103//32 104//32 97//32 96//32
f 98//33 99//33 92//33 91//33
f 100//34 101//34 94//34 93//34
f 102//35 103//35 96//35 95//35
f 99//36 100//36 93//36 92//36
f 108//37 109//37 102//37 101//37
f 110//38 111//38 104//38 103//38
f 105//39 106//39 99//39 98//39
f 107//40 108//40 101//40 100//40
f 109//41 110//41 103//41 102//41
f 106//42 107//42 100//42 99//42
f 115//43 116//43 109//43 108//43
f 117//44 118//44 111//44 110//44
f 112//45 113//45 106//45 105//45
f 114//46 115//46 108//46 107//46
f 116//47 117//47 110//47 109//47
f 113//48 114//48 107//48 106//48
f 122//49 123//49 116//49 115//49
f 124//50 125//50 118//50 117//50
f 119//51 120//51 113//51 112//51
f 121//52 122//52 115//52 114//52
f 123//53 124//53 117//53 116//53
f 120//54 121//54 114//54 113//54
f 129//55 130//55 123//55 122//55
f 131//56 132//56 125//56 124//56
f 126//57 127//57 120//57 119//57
f 128//58 129//58 122//58 121//58
f 130//59 131//59 124//59 123//59
f 127//60 128//60 121//60 120//60
f 136//61 137//61 130//61 129//61
f 138//62 139//62 132//62 131//62
f 133//63 134//63 127//63 126//63
f 135//64 136//64 129//64 128//64
f 137//65 138//65 131//65 130//65
f 134//66 135//66 128//66 127//66
f 59//67 60//67 137//67 136//67
f 61//68 62//68 139//68 138//68
f 56//69 57//69 134//69 133//69
f 58//70 59//70 136//70 135//70
f 60//71 61//71 138//71 137//71
f 84//72 77//72 70//72
f 84//72 70//72 63//72
f 91//72 84//72 63//72
f 56//72 91//72 63//72
f 56//72 98//72 91//72
f 56//72 133//72 98//72
f 133//72 105//72 98//72
f 133//72 126//72 105//72
f 126//72 112//72 105//72
f 126//72 119//72 112//72
f 76//73 83//73 90//73
f 69//73 76//73 90//73
f 69//73 90//73 97//73
f 62//73 69//73 97//73
f 62//73 97//73 104//73
f 139//73 62//73 104//73
f 139//73 104//73 111//73
f 139//73 111//73 132//73
f 111//73 118//73 132//73
f 118//73 125//73 132//73
f 57//74 58//74 135//74 134//74
usemtl Material.004
f 1//75 2//75 5//75 4//75
f 6//75 5//75 2//75 3//75
f 1//75 3//75 6//75 4//75
f 9//76 7//76 4//76 6//76
f 8//77 7//77 4//77 5//77
f 9//78 8//78 5//78 6//78
f 12//79 11//79 8//79 9//79
f 12//80 10//80 7//80 9//80
f 11//81 10//81 7//81 8//81
f 14//82 13//82 10//82 11//82
f 15//83 14//83 11//83 12//83
f 15//84 13//84 10//84 12//84
f 35//85 26//85 16//85 25//85
f 31//86 32//86 22//86 21//86
f 26//87 28//87 18//87 16//87
f 32//88 33//88 23//88 22//88
f 28//89 29//89 19//89 18//89
f 33//90 34//90 24//90 23//90
f 29//91 27//91 17//91 19//91
f 34//92 35//92 25//92 24//92
f 27//93 30//93 20//93 17//93
f 30//94 31//94 21//94 20//94
f 26//95 35//95 34//95
f 26//96 34//96 33//96
f 26//97 33//97 28//97
f 33//73 32//73 28//73
f 32//73 29//73 28//73
f 32//73 31//73 29//73
f 31//73 27//73 29//73
f 31//73 30//73 27//73
f 25//98 16//98 24//98
f 16//99 23//99 24//99
f 16//100 18//100 23//100
f 18//72 22//72 23//72
f 18//72 19//72 22//72
f 19//72 21//72 22//72
f 19//72 17//72 21//72
f 17//72 20//72 21//72
f 55//101 46//101 36//101 45//101
f 51//102 52//102 42//102 41//102
f 46//103 48//103 38//103 36//103
f 52//104 53//104 43//104 42//104
f 48//105 49//105 39//105 38//105
f 53//106 54//106 44//106 43//106
f 49//107 47//107 37//107 39//107
f 54//108 55//108 45//108 44//108
f 47//109 50//109 40//109 37//109
f 50//110 51//110 41//110 40//110
f 51//73 50//73 47//73
f 51//73 47//73 49//73
f 51//73 49//73 48//73
f 52//73 51//73 48//73
f 46//96 52//96 48//96
f 46//73 53//73 52//73
f 46//111 55//111 53//111
f 55//73 54//73 53//73
f 37//72 40//72 41//72
f 39//72 37//72 41//72
f 38//72 39//72 41//72
f 38//72 41//72 42//72
f 36//99 38//99 42//99
f 36//72 42//72 43//72
f 45//112 36//112 43//112
f 45//72 43//72 44//72
