# Blender v2.63 (sub 0) OBJ File: 'fourmi3.blend'
# www.blender.org
mtllib fourmi3_000051.mtl
o Circle
v 0.714439 2.853085 -2.636750
v 0.717262 2.752628 -2.578820
v 0.711616 2.752628 -2.694681
v 2.037493 4.276236 -2.240605
v 2.057478 4.156297 -2.174305
v 2.017507 4.156297 -2.306905
v 2.999628 3.314322 -3.683809
v 3.033200 3.232059 -3.650213
v 2.966057 3.232059 -3.717406
v -0.367447 2.853089 -2.636754
v -0.370270 2.752631 -2.578823
v -0.364624 2.752631 -2.694684
v -1.513025 4.276239 -2.240608
v -1.533011 4.156300 -2.174308
v -1.493040 4.156300 -2.306908
v -2.475160 3.314324 -3.683813
v -2.508731 3.232061 -3.650217
v -2.441589 3.232061 -3.717409
v 0.541882 3.061486 -0.582144
v 0.593183 2.859191 -0.472595
v 0.489008 2.855683 -0.683946
v 1.517235 2.450597 -1.366626
v 1.553203 2.360068 -1.325712
v 1.482980 2.357332 -1.404284
v 2.820036 0.102091 -2.476552
v 2.851927 0.008062 -2.433612
v 2.794757 0.008963 -2.525444
v -0.080496 3.004753 -0.571807
v -0.141552 2.801172 -0.470906
v -0.067638 2.809833 -0.691016
v -1.305885 2.873939 -1.054724
v -1.332519 2.782726 -1.010219
v -1.300001 2.788611 -1.110450
v -2.590468 0.419978 -1.540531
v -2.585841 0.326405 -1.486449
v -2.571059 0.327734 -1.593604
v 0.490405 2.935942 0.486877
v 0.488061 2.728955 0.599623
v 0.507649 2.735103 0.366281
v 2.251703 2.441706 0.805809
v 2.239935 2.345918 0.850136
v 2.276036 2.354127 0.751079
v 4.198153 0.288555 1.586868
v 4.185307 0.190339 1.630352
v 4.222906 0.200304 1.529409
v -0.021784 2.943350 0.494556
v -0.044595 2.729435 0.584637
v -0.021274 2.756424 0.353671
v -1.765665 2.583167 0.192029
v -1.757345 2.482604 0.222309
v -1.769314 2.506337 0.119497
v -3.480751 -0.024933 0.373629
v -3.452414 -0.124328 0.405562
v -3.479123 -0.106250 0.302304
v 0.475837 3.026742 1.587616
v 0.508476 2.820292 1.696249
v 0.558260 2.841935 1.467031
v 1.710689 3.010886 2.298033
v 1.677232 2.920227 2.335294
v 1.743164 2.925469 2.256506
v 2.566794 -0.002504 4.843562
v 2.495100 -0.078894 4.870017
v 2.583717 -0.105020 4.813908
v 0.136409 3.016174 1.397861
v 0.217578 2.903068 1.588250
v 0.149833 2.780697 1.398341
v -0.926041 2.755375 2.579579
v -0.860366 2.696343 2.638253
v -0.935899 2.652096 2.580351
v -1.459126 0.360765 5.611668
v -1.381593 0.297912 5.653385
v -1.466447 0.253153 5.603397
v -0.339235 2.293609 3.219453
v -0.035914 2.913894 3.110080
v 0.645643 3.067091 3.083067
v 1.192209 2.637841 3.158756
v 1.192210 1.949377 3.280150
v 0.645644 1.520127 3.355839
v -0.035913 1.673324 3.328826
v 0.013507 2.046604 4.167382
v 0.184018 2.395293 4.105898
v 0.567151 2.481412 4.090713
v 0.874400 2.240112 4.133261
v 0.874400 1.853096 4.201502
v 0.567151 1.611795 4.244050
v 0.184018 1.697914 4.228865
v 0.126987 3.044724 1.905301
v 0.222011 3.239046 1.871037
v 0.435528 3.287040 1.862574
v 0.606755 3.152565 1.886286
v 0.606755 2.936884 1.924316
v 0.435528 2.802409 1.948028
v 0.222011 2.850403 1.939565
v -0.037293 2.955210 1.380903
v 0.095014 3.229948 1.380903
v 0.392305 3.297802 1.380903
v 0.630713 3.107678 1.380903
v 0.630714 2.802742 1.380903
v 0.392305 2.612617 1.380903
v 0.095014 2.680472 1.380903
v -0.254128 3.053087 -0.087389
v -0.072941 3.429327 -0.087389
v 0.334184 3.522251 -0.087389
v 0.660673 3.261885 -0.087389
v 0.660673 2.844290 -0.087389
v 0.334184 2.583924 -0.087389
v -0.072941 2.676847 -0.087389
v -0.135178 3.085713 -1.468671
v -0.002872 3.360451 -1.468671
v 0.294419 3.428306 -1.468671
v 0.532828 3.238181 -1.468671
v 0.532828 2.933245 -1.468671
v 0.294419 2.743121 -1.468671
v -0.002872 2.810975 -1.468671
v -0.561607 3.015355 -1.521539
v -0.251750 3.518557 -1.521539
v 0.444491 3.642837 -1.521539
v 1.002834 3.294611 -1.521539
v 1.002834 2.736099 -1.521539
v 0.444492 2.387873 -1.521539
v -0.251750 2.512153 -1.521539
v -0.561607 2.664917 -2.450506
v -0.251750 3.168119 -2.450506
v 0.444492 3.292399 -2.450506
v 1.002834 2.944173 -2.450506
v 1.002835 2.385661 -2.450506
v 0.444492 2.037435 -2.450506
v -0.251750 2.161715 -2.450506
v -0.066452 2.193462 -3.175553
v 0.056974 2.393904 -3.175553
v 0.334310 2.443409 -3.175553
v 0.556716 2.304699 -3.175553
v 0.556716 2.082225 -3.175553
v 0.334310 1.943515 -3.175553
v 0.056974 1.993020 -3.175553
vn 0.284840 -0.492895 0.822144
vn -0.589732 0.349384 0.728112
vn 0.739798 -0.658977 -0.135824
vn 0.863405 0.388001 0.322470
vn -0.455727 -0.855931 0.244326
vn 0.545942 -0.482865 0.684682
vn 0.329832 0.489228 -0.807383
vn -0.640291 -0.325827 -0.695604
vn 0.786187 0.600895 0.144343
vn 0.863405 -0.388001 -0.322469
vn -0.455727 0.855931 -0.244327
vn 0.545945 0.482862 -0.684681
vn 0.710859 0.477298 0.516592
vn -0.308539 -0.928727 0.205597
vn 0.347606 -0.477549 0.806918
vn 0.894161 0.410256 0.179350
vn -0.644135 -0.589113 0.487890
vn 0.011027 -0.424027 0.905582
vn 0.363974 -0.496857 -0.787817
vn -0.030312 0.998917 0.035288
vn 0.264985 0.523284 -0.809912
vn 0.826063 -0.338702 -0.450446
vn -0.860459 0.476794 -0.179662
vn -0.485812 0.405292 -0.774419
vn -0.028528 0.461358 0.886755
vn -0.198466 -0.977199 -0.075458
vn -0.289982 -0.527302 0.798663
vn 0.079912 0.402601 0.911881
vn -0.650178 -0.696789 -0.302908
vn -0.735285 -0.498354 0.459347
vn 0.236486 -0.356794 -0.903755
vn -0.164731 0.975960 0.142708
vn 0.009571 0.628925 -0.777407
vn 0.268645 -0.240917 -0.932625
vn -0.800338 0.540313 0.259849
vn -0.744603 0.454344 -0.489017
vn -0.460718 0.392228 0.796176
vn 0.105900 -0.993270 -0.046915
vn -0.412907 -0.591199 0.692814
vn -0.385443 0.530569 0.754937
vn -0.562602 -0.618257 -0.548851
vn -0.965724 -0.259187 0.014111
vn -0.267225 -0.859212 -0.436285
vn -0.446723 0.840430 -0.306784
vn -0.739162 -0.010268 -0.673450
vn -0.197773 -0.751132 -0.629830
vn -0.637321 0.653569 0.408252
vn -0.990649 0.084506 -0.107116
vn -0.941834 -0.058360 -0.330973
vn 0.221632 0.971785 -0.080708
vn 0.787598 -0.457853 -0.412384
vn -0.507215 -0.727350 -0.462272
vn -0.623490 0.770161 -0.134584
vn -0.889910 -0.394923 0.228246
vn 0.173481 -0.857269 -0.484761
vn 0.000000 -0.173648 -0.984808
vn -0.000001 -0.173648 -0.984808
vn 0.000001 -0.173648 -0.984808
vn -0.893327 0.078039 0.442581
vn 0.140888 0.742302 0.655086
vn 0.900969 -0.427278 0.075422
vn -0.614122 -0.788373 -0.036350
vn -0.414188 0.641280 0.645917
vn -0.730540 -0.448096 -0.515287
vn 0.206664 -0.956074 -0.207875
vn -0.614546 0.760123 -0.211061
vn -0.860008 -0.393033 0.325439
vn 0.220364 -0.974586 -0.040268
vn -0.998978 -0.003293 -0.045079
vn 0.214194 0.920592 -0.326543
vn 0.874087 -0.438844 -0.208298
vn -0.621976 -0.782056 0.039176
vn -0.620705 -0.778340 -0.094410
vn -0.623463 0.781797 0.009401
vn -0.896123 -0.431551 0.103571
vn 0.219800 -0.963006 -0.155909
vn -0.999792 -0.000000 -0.020400
vn 0.222434 0.974550 -0.027849
vn 0.889377 -0.428301 -0.159893
vn 0.221282 0.969501 0.105367
vn 0.898933 -0.432903 0.067187
vn -0.621918 -0.779862 0.070945
vn -0.619881 0.777306 0.107432
vn -0.897513 -0.432220 -0.087499
vn 0.222123 -0.973183 0.059795
vn -0.995744 -0.000000 0.092162
vn -0.111779 -0.000000 -0.993733
vn 0.029994 0.155098 -0.987444
vn 0.143798 -0.081732 -0.986226
vn -0.101825 -0.150698 -0.983322
vn -0.072924 0.107925 -0.991481
vn -0.118345 -0.067265 0.990692
vn 0.050330 -0.260256 -0.964227
vn -0.835328 -0.514370 0.194038
vn 0.164732 -0.922858 0.348133
vn -1.000000 -0.000000 -0.000000
vn 0.164732 0.922858 -0.348134
vn 0.835328 -0.514370 0.194038
vn -0.504003 -0.808114 0.304848
vn -0.504003 0.808114 -0.304848
vn -0.360620 -0.578216 0.731860
vn -0.528962 0.848133 -0.029480
vn -0.827891 -0.509791 -0.233902
vn 0.116686 -0.653695 0.747708
vn -0.851692 -0.000000 0.524043
vn 0.173671 0.972937 -0.152422
vn 0.625885 -0.385401 0.678037
vn 0.000000 -0.000000 1.000000
usemtl Material
s off
f 1//1 3//1 6//1 4//1
f 1//2 2//2 5//2 4//2
f 6//3 5//3 2//3 3//3
f 8//4 7//4 4//4 5//4
f 9//5 8//5 5//5 6//5
f 9//6 7//6 4//6 6//6
f 15//7 13//7 10//7 12//7
f 14//8 13//8 10//8 11//8
f 15//9 14//9 11//9 12//9
f 17//10 16//10 13//10 14//10
f 18//11 17//11 14//11 15//11
f 18//12 16//12 13//12 15//12
f 23//13 22//13 19//13 20//13
f 24//14 23//14 20//14 21//14
f 24//15 22//15 19//15 21//15
f 26//16 25//16 22//16 23//16
f 27//17 26//17 23//17 24//17
f 27//18 25//18 22//18 24//18
f 32//19 31//19 28//19 29//19
f 33//20 32//20 29//20 30//20
f 33//21 31//21 28//21 30//21
f 35//22 34//22 31//22 32//22
f 36//23 35//23 32//23 33//23
f 36//24 34//24 31//24 33//24
f 41//25 40//25 37//25 38//25
f 42//26 41//26 38//26 39//26
f 42//27 40//27 37//27 39//27
f 44//28 43//28 40//28 41//28
f 45//29 44//29 41//29 42//29
f 45//30 43//30 40//30 42//30
f 50//31 49//31 46//31 47//31
f 51//32 50//32 47//32 48//32
f 51//33 49//33 46//33 48//33
f 53//34 52//34 49//34 50//34
f 54//35 53//35 50//35 51//35
f 54//36 52//36 49//36 51//36
f 59//37 58//37 55//37 56//37
f 60//38 59//38 56//38 57//38
f 60//39 58//39 55//39 57//39
f 62//40 61//40 58//40 59//40
f 63//41 62//41 59//41 60//41
f 63//42 61//42 58//42 60//42
f 68//43 67//43 64//43 65//43
f 69//44 68//44 65//44 66//44
f 69//45 67//45 64//45 66//45
f 71//46 70//46 67//46 68//46
f 72//47 71//47 68//47 69//47
f 72//48 70//48 67//48 69//48
f 84//49 83//49 76//49 77//49
f 86//50 85//50 78//50 79//50
f 81//51 80//51 73//51 74//51
f 83//52 82//52 75//52 76//52
f 85//53 84//53 77//53 78//53
f 86//54 80//54 73//54 79//54
f 82//55 81//55 74//55 75//55
f 81//56 86//56 80//56
f 81//57 82//57 86//57
f 82//57 85//57 86//57
f 82//58 83//58 85//58
f 83//56 84//56 85//56
f 77//59 76//59 90//59 91//59
f 79//60 78//60 92//60 93//60
f 74//61 73//61 87//61 88//61
f 76//62 75//62 89//62 90//62
f 78//63 77//63 91//63 92//63
f 79//64 73//64 87//64 93//64
f 75//65 74//65 88//65 89//65
f 92//66 91//66 98//66 99//66
f 93//67 87//67 94//67 100//67
f 89//68 88//68 95//68 96//68
f 91//69 90//69 97//69 98//69
f 93//70 92//70 99//70 100//70
f 88//71 87//71 94//71 95//71
f 90//72 89//72 96//72 97//72
f 97//73 96//73 103//73 104//73
f 99//74 98//74 105//74 106//74
f 100//75 94//75 101//75 107//75
f 96//76 95//76 102//76 103//76
f 98//77 97//77 104//77 105//77
f 100//78 99//78 106//78 107//78
f 95//79 94//79 101//79 102//79
f 107//80 106//80 113//80 114//80
f 102//81 101//81 108//81 109//81
f 104//82 103//82 110//82 111//82
f 106//83 105//83 112//83 113//83
f 107//84 101//84 108//84 114//84
f 103//85 102//85 109//85 110//85
f 105//86 104//86 111//86 112//86
f 112//87 111//87 118//87 119//87
f 114//88 113//88 120//88 121//88
f 109//89 108//89 115//89 116//89
f 111//90 110//90 117//90 118//90
f 113//91 112//91 119//91 120//91
f 114//92 108//92 115//92 121//92
f 110//93 109//93 116//93 117//93
f 121//94 115//94 122//94 128//94
f 117//95 116//95 123//95 124//95
f 119//96 118//96 125//96 126//96
f 121//97 120//97 127//97 128//97
f 116//98 115//98 122//98 123//98
f 118//99 117//99 124//99 125//99
f 120//100 119//100 126//100 127//100
f 125//101 124//101 131//101 132//101
f 127//102 126//102 133//102 134//102
f 128//103 122//103 129//103 135//103
f 124//104 123//104 130//104 131//104
f 126//105 125//105 132//105 133//105
f 128//106 127//106 134//106 135//106
f 123//107 122//107 129//107 130//107
f 130//108 129//108 135//108
f 131//108 130//108 135//108
f 131//108 135//108 134//108
f 131//108 134//108 132//108
f 134//108 133//108 132//108
