# Blender v2.63 (sub 0) OBJ File: 'apple.blend'
# www.blender.org
mtllib apple3.mtl
o Mesh_Sphere.001
v -11.803572 31.713390 -6.814789
v -15.422112 25.460079 -8.903955
v -17.807919 25.460077 0.000004
v -13.629591 31.713390 0.000005
v -16.692774 18.083797 -9.637571
v -15.422112 10.707515 -8.903956
v -17.807919 10.707513 0.000002
v -19.275154 18.083797 0.000003
v -11.803572 4.454206 -6.814794
v -6.388047 0.275878 -3.688140
v -7.376283 0.275877 0.000000
v -13.629591 4.454205 0.000001
v -6.388047 35.891716 -3.688134
v -7.376283 35.891716 0.000006
v -9.637578 18.083799 -16.692766
v -8.903961 10.707516 -15.422104
v -6.814797 4.454207 -11.803569
v -3.688143 0.275878 -6.388047
v -3.688143 35.891716 -6.388038
v -6.814797 31.713392 -11.803564
v -8.903961 25.460079 -15.422101
v -0.000003 18.083799 -19.275143
v -0.000003 10.707516 -17.807915
v -0.000003 4.454207 -13.629588
v -0.000003 0.275878 -7.376280
v -0.000003 35.891716 -7.376274
v -0.000003 31.713392 -13.629583
v -0.000003 25.460081 -17.807913
v 9.637571 18.083799 -16.692766
v 8.903955 10.707516 -15.422104
v 6.814791 4.454207 -11.803569
v 3.688137 0.275878 -6.388044
v 3.688137 35.891716 -6.388038
v 6.814791 31.713392 -11.803564
v 8.903955 25.460079 -15.422101
v 16.692766 18.083797 -9.637568
v 15.422102 10.707515 -8.903953
v 11.803566 4.454206 -6.814794
v 6.388044 0.275878 -3.688140
v 6.388041 35.891716 -3.688134
v 11.803566 31.713390 -6.814789
v 15.422102 25.460079 -8.903951
v 19.275143 18.083797 0.000003
v 17.807909 10.707513 0.000002
v 13.629584 4.454205 0.000001
v 7.376277 0.275877 0.000000
v 7.376277 35.891716 0.000006
v 13.629584 31.713390 0.000005
v 17.807909 25.460077 0.000004
v 16.692760 18.083796 9.637578
v 15.422102 10.707511 8.903960
v 11.803566 4.454204 6.814795
v 6.388041 0.275876 3.688140
v 6.388041 35.891716 3.688146
v 11.803566 31.713388 6.814799
v 15.422102 25.460075 8.903962
v 9.637569 18.083794 16.692772
v 8.903952 10.707510 15.422107
v 6.814791 4.454203 11.803570
v 3.688137 0.275876 6.388047
v 3.688137 35.891716 6.388050
v 6.814791 31.713387 11.803575
v 8.903952 25.460075 15.422110
v -0.000006 18.083794 19.275150
v -0.000003 10.707510 17.807919
v -0.000003 4.454203 13.629589
v -0.000003 0.275876 7.376280
v -0.000003 35.891716 7.376283
v -0.000003 31.713387 13.629594
v -0.000003 25.460073 17.807920
v -9.637578 18.083794 16.692768
v -8.903961 10.707510 15.422107
v -6.814797 4.454203 11.803570
v -3.688143 0.275876 6.388044
v -3.688143 35.891716 6.388050
v -6.814797 31.713387 11.803575
v -8.903961 25.460075 15.422110
v -16.692772 18.083796 9.637575
v -15.422112 10.707511 8.903956
v -11.803572 4.454204 6.814795
v -6.388047 0.275876 3.688140
v -6.388047 35.891716 3.688143
v -11.803572 31.713388 6.814799
v -15.422112 25.460075 8.903959
v -0.028230 35.972275 -1.484490
v -1.352835 35.972275 0.809796
v -1.352835 35.972275 0.809796
v -0.028230 35.972275 -1.484490
v 1.296375 35.972275 0.809793
v 1.296375 35.972275 0.809793
v 1.296375 37.559021 0.809793
v -0.028230 37.559021 -1.484490
v -1.352835 37.559021 0.809796
v 0.911328 40.272270 -2.440706
v -0.967788 40.272270 -2.440706
v -0.028230 39.570381 -3.908924
v -0.651195 41.217388 -7.076273
v -0.028230 40.357777 -7.728440
v 0.594735 41.217388 -7.076273
v 2.171130 36.302864 -0.679470
v -0.028230 36.302868 0.045033
v -0.028230 35.972275 0.045033
v 2.171130 35.972275 -0.679470
v 15.001993 36.302864 11.250003
v 15.334330 36.302864 6.950856
v 15.334330 35.972271 6.950856
v 15.001993 35.972271 11.250003
v -0.591399 36.302864 3.671730
v -0.591399 35.972275 3.671730
v 12.436001 36.302864 2.206545
v 12.436001 35.972275 2.206545
v 0.952008 36.302864 7.753620
v 0.952008 35.972271 7.753620
v 7.277538 36.302864 -0.451557
v 7.277538 35.972275 -0.451557
v 5.517231 36.302864 10.666155
v 5.517231 35.972271 10.666155
v 10.958895 36.302864 12.373775
v 10.958895 35.972271 12.373775
v -1.929135 36.302860 1.367400
v -0.028230 36.302864 0.045033
v -0.028230 35.972275 0.045033
v -1.929135 35.972271 1.367400
v -17.632236 36.302864 -6.401505
v -16.723110 36.302864 -2.186460
v -16.723110 35.972271 -2.186460
v -17.632236 35.972271 -6.401505
v -0.524118 36.302864 -3.591474
v -0.524118 35.972271 -3.591474
v -12.590715 36.302860 1.532697
v -12.590715 35.972271 1.532697
v -3.168852 36.302864 -7.062687
v -3.168852 35.972271 -7.062687
v -6.888009 36.302860 2.607120
v -6.888009 35.972271 2.607120
v -8.375669 36.302864 -8.550351
v -8.375669 35.972271 -8.550351
v -14.078376 36.302864 -8.632998
v -14.078376 35.972271 -8.632998
vn -0.811572 0.542275 -0.217460
vn -0.948576 -0.188683 -0.254170
vn -0.549515 -0.822407 -0.147242
vn -0.549515 0.822407 -0.147242
vn -0.948576 0.188684 -0.254170
vn -0.811572 -0.542275 -0.217460
vn -0.694406 -0.188683 -0.694406
vn -0.402273 -0.822407 -0.402273
vn -0.402273 0.822407 -0.402272
vn -0.694405 0.188684 -0.694406
vn -0.594112 -0.542275 -0.594112
vn -0.594112 0.542275 -0.594112
vn -0.254170 -0.188683 -0.948576
vn -0.147242 -0.822407 -0.549515
vn -0.147242 0.822407 -0.549514
vn -0.254170 0.188683 -0.948576
vn -0.217460 -0.542275 -0.811572
vn -0.217460 0.542275 -0.811572
vn 0.254170 -0.188683 -0.948576
vn 0.147242 -0.822407 -0.549515
vn 0.147242 0.822407 -0.549514
vn 0.254170 0.188683 -0.948576
vn 0.217460 -0.542275 -0.811572
vn 0.217460 0.542275 -0.811572
vn 0.694406 -0.188684 -0.694405
vn 0.402273 -0.822407 -0.402273
vn 0.402273 0.822407 -0.402272
vn 0.694406 0.188684 -0.694405
vn 0.594112 -0.542275 -0.594112
vn 0.594112 0.542275 -0.594112
vn 0.948576 -0.188684 -0.254170
vn 0.549515 -0.822407 -0.147242
vn 0.549515 0.822407 -0.147242
vn 0.948576 0.188684 -0.254170
vn 0.811572 -0.542275 -0.217460
vn 0.811572 0.542275 -0.217460
vn 0.948576 -0.188683 0.254170
vn 0.549515 -0.822407 0.147242
vn 0.549515 0.822407 0.147242
vn 0.948576 0.188683 0.254170
vn 0.811572 -0.542275 0.217460
vn 0.811572 0.542275 0.217460
vn 0.694406 -0.188684 0.694406
vn 0.402273 -0.822407 0.402273
vn 0.402273 0.822407 0.402273
vn 0.694406 0.188683 0.694406
vn 0.594112 -0.542275 0.594112
vn 0.594112 0.542274 0.594112
vn 0.254170 -0.188683 0.948576
vn 0.147242 -0.822407 0.549515
vn 0.147242 0.822407 0.549515
vn 0.254170 0.188683 0.948576
vn 0.217460 -0.542275 0.811572
vn 0.217460 0.542275 0.811572
vn -0.254170 -0.188683 0.948576
vn -0.147242 -0.822407 0.549515
vn -0.147242 0.822407 0.549515
vn -0.254170 0.188683 0.948576
vn -0.217460 -0.542275 0.811572
vn -0.217460 0.542275 0.811572
vn -0.694406 -0.188683 0.694406
vn -0.402273 -0.822407 0.402273
vn -0.402273 0.822407 0.402273
vn -0.694406 0.188683 0.694406
vn -0.594112 -0.542275 0.594112
vn -0.594112 0.542275 0.594112
vn -0.948576 -0.188683 0.254170
vn -0.549515 -0.822407 0.147242
vn -0.549515 0.822407 0.147242
vn -0.948576 0.188683 0.254170
vn -0.811572 -0.542275 0.217460
vn -0.000000 1.000000 0.000000
vn 0.000000 -1.000000 -0.000000
vn -0.811572 0.542275 0.217460
vn 0.000000 0.000000 0.000000
vn -0.866025 -0.000000 0.500000
vn -0.866026 0.000000 -0.499999
vn 0.000001 -0.000000 1.000000
vn 0.000000 0.767698 0.640811
vn -0.808838 0.423766 0.407682
vn -0.808838 -0.423766 -0.407682
vn -0.793521 -0.589630 -0.150533
vn 0.000000 0.979842 0.199774
vn -0.793521 0.589630 0.150533
vn 0.312877 -0.000000 0.949794
vn -0.997025 0.000000 -0.077073
vn 0.988157 -0.000000 0.153445
vn -0.853360 0.000000 0.521323
vn 0.935369 0.000000 -0.353673
vn -0.458054 0.000000 0.888925
vn 0.537847 0.000000 -0.843043
vn -0.044588 -0.000000 0.999005
vn 0.299409 0.000000 -0.954125
vn -0.267796 0.000000 -0.963476
vn -0.000000 -1.000000 0.000005
vn -0.000000 -1.000000 0.000001
vn -0.000000 -1.000000 -0.000001
vn 0.000000 1.000000 0.000001
vn -0.571064 0.000000 -0.820906
vn 0.977521 0.000000 -0.210838
vn -0.990830 0.000000 0.135113
vn 0.668965 0.000000 -0.743294
vn -0.795432 0.000000 0.606043
vn 0.185148 0.000000 -0.982711
vn -0.274721 0.000000 0.961524
vn -0.242536 0.000000 -0.970142
vn -0.014491 0.000000 0.999895
vn 0.531768 0.000000 0.846890
vn -0.000000 -1.000000 -0.000003
vn -0.000000 1.000000 -0.000001
vn 0.000000 1.000000 0.000003
usemtl Material.000
s off
f 1//1 2//1 3//1 4//1
f 5//2 6//2 7//2 8//2
f 9//3 10//3 11//3 12//3
f 13//4 1//4 4//4 14//4
f 2//5 5//5 8//5 3//5
f 6//6 9//6 12//6 7//6
f 15//7 16//7 6//7 5//7
f 17//8 18//8 10//8 9//8
f 1//9 13//9 19//9 20//9
f 21//10 15//10 5//10 2//10
f 16//11 17//11 9//11 6//11
f 2//12 1//12 20//12 21//12
f 22//13 23//13 16//13 15//13
f 24//14 25//14 18//14 17//14
f 26//15 27//15 20//15 19//15
f 28//16 22//16 15//16 21//16
f 23//17 24//17 17//17 16//17
f 27//18 28//18 21//18 20//18
f 29//19 30//19 23//19 22//19
f 31//20 32//20 25//20 24//20
f 33//21 34//21 27//21 26//21
f 35//22 29//22 22//22 28//22
f 30//23 31//23 24//23 23//23
f 34//24 35//24 28//24 27//24
f 36//25 37//25 30//25 29//25
f 38//26 39//26 32//26 31//26
f 40//27 41//27 34//27 33//27
f 42//28 36//28 29//28 35//28
f 37//29 38//29 31//29 30//29
f 41//30 42//30 35//30 34//30
f 43//31 44//31 37//31 36//31
f 45//32 46//32 39//32 38//32
f 47//33 48//33 41//33 40//33
f 49//34 43//34 36//34 42//34
f 44//35 45//35 38//35 37//35
f 48//36 49//36 42//36 41//36
f 50//37 51//37 44//37 43//37
f 52//38 53//38 46//38 45//38
f 54//39 55//39 48//39 47//39
f 56//40 50//40 43//40 49//40
f 51//41 52//41 45//41 44//41
f 55//42 56//42 49//42 48//42
f 57//43 58//43 51//43 50//43
f 59//44 60//44 53//44 52//44
f 61//45 62//45 55//45 54//45
f 63//46 57//46 50//46 56//46
f 58//47 59//47 52//47 51//47
f 62//48 63//48 56//48 55//48
f 64//49 65//49 58//49 57//49
f 66//50 67//50 60//50 59//50
f 68//51 69//51 62//51 61//51
f 70//52 64//52 57//52 63//52
f 65//53 66//53 59//53 58//53
f 69//54 70//54 63//54 62//54
f 71//55 72//55 65//55 64//55
f 73//56 74//56 67//56 66//56
f 75//57 76//57 69//57 68//57
f 77//58 71//58 64//58 70//58
f 72//59 73//59 66//59 65//59
f 76//60 77//60 70//60 69//60
f 78//61 79//61 72//61 71//61
f 80//62 81//62 74//62 73//62
f 82//63 83//63 76//63 75//63
f 84//64 78//64 71//64 77//64
f 79//65 80//65 73//65 72//65
f 83//66 84//66 77//66 76//66
f 8//67 7//67 79//67 78//67
f 12//68 11//68 81//68 80//68
f 14//69 4//69 83//69 82//69
f 3//70 8//70 78//70 84//70
f 7//71 12//71 80//71 79//71
f 33//72 26//72 19//72
f 33//72 19//72 13//72
f 40//72 33//72 13//72
f 14//72 40//72 13//72
f 14//72 47//72 40//72
f 14//72 82//72 47//72
f 82//72 54//72 47//72
f 82//72 75//72 54//72
f 75//72 61//72 54//72
f 75//72 68//72 61//72
f 18//73 25//73 32//73
f 10//73 18//73 32//73
f 10//73 32//73 39//73
f 11//73 10//73 39//73
f 11//73 39//73 46//73
f 81//73 11//73 46//73
f 81//73 46//73 53//73
f 81//73 53//73 74//73
f 53//73 60//73 74//73
f 60//73 67//73 74//73
f 4//74 3//74 84//74 83//74
usemtl Material.002
f 85//75 86//75 87//75 88//75
f 89//75 87//75 86//75 90//75
f 85//75 90//75 89//75 88//75
f 91//76 92//76 88//76 89//76
f 93//77 92//77 88//77 87//77
f 91//78 93//78 87//78 89//78
f 94//79 95//79 93//79 91//79
f 94//80 96//80 92//80 91//80
f 95//81 96//81 92//81 93//81
f 97//82 98//82 96//82 95//82
f 99//83 97//83 95//83 94//83
f 99//84 98//84 96//84 94//84
f 100//85 101//85 102//85 103//85
f 104//86 105//86 106//86 107//86
f 101//87 108//87 109//87 102//87
f 105//88 110//88 111//88 106//88
f 108//89 112//89 113//89 109//89
f 110//90 114//90 115//90 111//90
f 112//91 116//91 117//91 113//91
f 114//92 100//92 103//92 115//92
f 116//93 118//93 119//93 117//93
f 118//94 104//94 107//94 119//94
f 101//95 100//95 114//95
f 101//96 114//96 110//96
f 101//97 110//97 108//97
f 110//73 105//73 108//73
f 105//73 112//73 108//73
f 105//73 104//73 112//73
f 104//73 116//73 112//73
f 104//73 118//73 116//73
f 103//72 102//72 115//72
f 102//72 111//72 115//72
f 102//72 109//72 111//72
f 109//98 106//98 111//98
f 109//98 113//98 106//98
f 113//72 107//72 106//72
f 113//72 117//72 107//72
f 117//72 119//72 107//72
f 120//99 121//99 122//99 123//99
f 124//100 125//100 126//100 127//100
f 121//101 128//101 129//101 122//101
f 125//102 130//102 131//102 126//102
f 128//103 132//103 133//103 129//103
f 130//104 134//104 135//104 131//104
f 132//105 136//105 137//105 133//105
f 134//106 120//106 123//106 135//106
f 136//107 138//107 139//107 137//107
f 138//108 124//108 127//108 139//108
f 124//73 138//73 136//73
f 124//73 136//73 132//73
f 124//73 132//73 128//73
f 125//73 124//73 128//73
f 121//73 125//73 128//73
f 121//97 130//97 125//97
f 121//109 120//109 130//109
f 120//73 134//73 130//73
f 137//72 139//72 127//72
f 133//72 137//72 127//72
f 129//72 133//72 127//72
f 129//72 127//72 126//72
f 122//110 129//110 126//110
f 122//72 126//72 131//72
f 123//111 122//111 131//111
f 123//72 131//72 135//72
