# Blender v2.63 (sub 0) OBJ File: 'apple.blend'
# www.blender.org
mtllib apple1.mtl
o Mesh_Sphere.001
v -19.672621 52.855652 -11.357982
v -25.703522 42.433464 -14.839924
v -29.679867 42.433464 0.000007
v -22.715986 52.855648 0.000009
v -27.821291 30.139664 -16.062620
v -25.703522 17.845858 -14.839928
v -29.679867 17.845856 0.000003
v -32.125256 30.139660 0.000005
v -19.672621 7.423677 -11.357989
v -10.646745 0.459796 -6.146900
v -12.293805 0.459795 0.000000
v -22.715986 7.423675 0.000001
v -10.646745 59.819527 -6.146890
v -12.293805 59.819527 0.000010
v -16.062630 30.139666 -27.821276
v -14.839935 17.845860 -25.703506
v -11.357995 7.423678 -19.672615
v -6.146905 0.459797 -10.646745
v -6.146905 59.819527 -10.646730
v -11.357995 52.855652 -19.672607
v -14.839935 42.433468 -25.703503
v -0.000005 30.139666 -32.125240
v -0.000005 17.845860 -29.679857
v -0.000005 7.423679 -22.715981
v -0.000005 0.459797 -12.293800
v -0.000005 59.819530 -12.293791
v -0.000005 52.855652 -22.715973
v -0.000005 42.433468 -29.679853
v 16.062620 30.139666 -27.821276
v 14.839925 17.845860 -25.703506
v 11.357985 7.423678 -19.672615
v 6.146895 0.459797 -10.646740
v 6.146895 59.819527 -10.646730
v 11.357985 52.855652 -19.672607
v 14.839925 42.433468 -25.703503
v 27.821276 30.139664 -16.062614
v 25.703505 17.845858 -14.839922
v 19.672609 7.423677 -11.357989
v 10.646740 0.459796 -6.146900
v 10.646735 59.819527 -6.146890
v 19.672609 52.855652 -11.357982
v 25.703505 42.433464 -14.839918
v 32.125240 30.139660 0.000005
v 29.679850 17.845856 0.000003
v 22.715973 7.423675 0.000001
v 12.293796 0.459795 0.000000
v 12.293796 59.819527 0.000010
v 22.715973 52.855648 0.000009
v 29.679850 42.433464 0.000007
v 27.821270 30.139658 16.062630
v 25.703505 17.845852 14.839933
v 19.672609 7.423673 11.357992
v 10.646735 0.459794 6.146900
v 10.646735 59.819527 6.146910
v 19.672609 52.855648 11.357999
v 25.703505 42.433460 14.839937
v 16.062614 30.139656 27.821285
v 14.839920 17.845850 25.703512
v 11.357985 7.423672 19.672617
v 6.146895 0.459793 10.646745
v 6.146895 59.819527 10.646749
v 11.357985 52.855644 19.672625
v 14.839920 42.433456 25.703516
v -0.000010 30.139656 32.125248
v -0.000005 17.845850 29.679865
v -0.000005 7.423671 22.715982
v -0.000005 0.459793 12.293800
v -0.000005 59.819523 12.293805
v -0.000005 52.855644 22.715990
v -0.000005 42.433456 29.679869
v -16.062630 30.139656 27.821281
v -14.839935 17.845850 25.703512
v -11.357995 7.423672 19.672617
v -6.146905 0.459793 10.646740
v -6.146905 59.819527 10.646749
v -11.357995 52.855644 19.672625
v -14.839935 42.433456 25.703516
v -27.821285 30.139658 16.062624
v -25.703522 17.845852 14.839928
v -19.672621 7.423673 11.357992
v -10.646745 0.459794 6.146900
v -10.646745 59.819527 6.146905
v -19.672621 52.855648 11.357999
v -25.703522 42.433460 14.839931
v -0.047050 59.953789 -2.474150
v -2.254725 59.953789 1.349660
v -2.254725 59.953789 1.349660
v -0.047050 59.953789 -2.474150
v 2.160625 59.953789 1.349655
v 2.160625 59.953789 1.349655
v 2.160625 62.598366 1.349655
v -0.047050 62.598366 -2.474150
v -2.254725 62.598366 1.349660
v 1.518880 67.120445 -4.067844
v -1.612980 67.120445 -4.067844
v -0.047050 65.950630 -6.514874
v -1.085325 68.695648 -11.793790
v -0.047050 67.262962 -12.880734
v 0.991225 68.695648 -11.793790
v 3.618550 60.504776 -1.132450
v -0.047050 60.504780 0.075055
v -0.047050 59.953793 0.075055
v 3.618550 59.953789 -1.132450
v 25.003321 60.504772 18.750006
v 25.557215 60.504772 11.584761
v 25.557215 59.953789 11.584760
v 25.003321 59.953785 18.750006
v -0.985665 60.504772 6.119550
v -0.985665 59.953789 6.119549
v 20.726669 60.504776 3.677575
v 20.726669 59.953789 3.677575
v 1.586680 60.504772 12.922700
v 1.586680 59.953789 12.922700
v 12.129230 60.504776 -0.752595
v 12.129230 59.953789 -0.752595
v 9.195385 60.504772 17.776924
v 9.195385 59.953785 17.776924
v 18.264826 60.504772 20.622959
v 18.264826 59.953785 20.622959
v -3.215225 60.504768 2.279000
v -0.047050 60.504776 0.075055
v -0.047050 59.953789 0.075055
v -3.215225 59.953785 2.279000
v -29.387058 60.504772 -10.669175
v -27.871849 60.504772 -3.644100
v -27.871849 59.953785 -3.644100
v -29.387058 59.953785 -10.669175
v -0.873530 60.504772 -5.985790
v -0.873530 59.953785 -5.985790
v -20.984526 60.504768 2.554495
v -20.984526 59.953785 2.554495
v -5.281420 60.504772 -11.771146
v -5.281420 59.953789 -11.771146
v -11.480016 60.504768 4.345200
v -11.480016 59.953785 4.345200
v -13.959450 60.504772 -14.250586
v -13.959450 59.953789 -14.250586
v -23.463959 60.504772 -14.388330
v -23.463959 59.953789 -14.388330
vn -0.811572 0.542275 -0.217460
vn -0.948576 -0.188683 -0.254170
vn -0.549515 -0.822407 -0.147242
vn -0.549515 0.822407 -0.147242
vn -0.948576 0.188683 -0.254170
vn -0.811572 -0.542275 -0.217460
vn -0.694405 -0.188683 -0.694406
vn -0.402273 -0.822407 -0.402273
vn -0.402273 0.822407 -0.402273
vn -0.694405 0.188684 -0.694406
vn -0.594112 -0.542275 -0.594112
vn -0.594112 0.542275 -0.594112
vn -0.254170 -0.188683 -0.948576
vn -0.147242 -0.822407 -0.549515
vn -0.147242 0.822407 -0.549514
vn -0.254170 0.188684 -0.948576
vn -0.217460 -0.542275 -0.811572
vn -0.217460 0.542275 -0.811572
vn 0.254170 -0.188683 -0.948576
vn 0.147242 -0.822407 -0.549515
vn 0.147242 0.822407 -0.549515
vn 0.254170 0.188684 -0.948576
vn 0.217460 -0.542275 -0.811572
vn 0.217460 0.542275 -0.811572
vn 0.694406 -0.188683 -0.694406
vn 0.402273 -0.822407 -0.402273
vn 0.402273 0.822407 -0.402273
vn 0.694406 0.188684 -0.694405
vn 0.594112 -0.542275 -0.594112
vn 0.594112 0.542275 -0.594112
vn 0.948576 -0.188683 -0.254170
vn 0.549515 -0.822407 -0.147242
vn 0.549515 0.822407 -0.147242
vn 0.948576 0.188684 -0.254170
vn 0.811572 -0.542275 -0.217460
vn 0.811572 0.542275 -0.217460
vn 0.948576 -0.188683 0.254170
vn 0.549515 -0.822407 0.147242
vn 0.549515 0.822407 0.147242
vn 0.948576 0.188683 0.254170
vn 0.811572 -0.542275 0.217460
vn 0.811572 0.542275 0.217460
vn 0.694406 -0.188683 0.694406
vn 0.402273 -0.822407 0.402273
vn 0.402273 0.822407 0.402273
vn 0.694406 0.188683 0.694406
vn 0.594112 -0.542275 0.594112
vn 0.594112 0.542275 0.594112
vn 0.254170 -0.188683 0.948576
vn 0.147242 -0.822407 0.549515
vn 0.147242 0.822407 0.549515
vn 0.254170 0.188683 0.948576
vn 0.217460 -0.542275 0.811572
vn 0.217460 0.542275 0.811572
vn -0.254170 -0.188683 0.948576
vn -0.147242 -0.822407 0.549515
vn -0.147242 0.822407 0.549515
vn -0.254170 0.188683 0.948576
vn -0.217460 -0.542275 0.811572
vn -0.217460 0.542275 0.811572
vn -0.694406 -0.188683 0.694406
vn -0.402273 -0.822407 0.402273
vn -0.402273 0.822407 0.402273
vn -0.694406 0.188683 0.694406
vn -0.594112 -0.542275 0.594112
vn -0.594112 0.542275 0.594112
vn -0.948576 -0.188683 0.254170
vn -0.549515 -0.822407 0.147242
vn -0.549515 0.822407 0.147242
vn -0.948576 0.188683 0.254170
vn -0.811572 -0.542275 0.217460
vn 0.000000 1.000000 0.000002
vn -0.000000 1.000000 0.000000
vn 0.000000 -1.000000 -0.000000
vn -0.811572 0.542275 0.217460
vn 0.000000 0.000000 0.000000
vn -0.866025 -0.000000 0.500000
vn -0.866026 0.000000 -0.500000
vn 0.000001 -0.000000 1.000000
vn 0.000000 0.767699 0.640811
vn -0.808838 0.423766 0.407682
vn -0.808838 -0.423766 -0.407682
vn -0.793521 -0.589630 -0.150533
vn 0.000000 0.979842 0.199775
vn -0.793521 0.589630 0.150533
vn 0.312877 -0.000000 0.949794
vn -0.997025 0.000000 -0.077073
vn 0.988157 -0.000000 0.153445
vn -0.853360 -0.000000 0.521322
vn 0.935369 0.000000 -0.353673
vn -0.458053 -0.000000 0.888925
vn 0.537847 0.000000 -0.843043
vn -0.044588 -0.000000 0.999005
vn 0.299409 0.000000 -0.954125
vn -0.267796 0.000000 -0.963475
vn -0.000000 -1.000000 0.000003
vn -0.000000 -1.000000 0.000001
vn 0.000000 -1.000000 -0.000001
vn 0.000000 1.000000 -0.000003
vn 0.000000 1.000000 -0.000001
vn 0.000000 1.000000 0.000001
vn -0.571064 0.000000 -0.820906
vn 0.977521 0.000000 -0.210837
vn -0.990830 0.000000 0.135113
vn 0.668965 0.000000 -0.743294
vn -0.795432 0.000000 0.606043
vn 0.185148 0.000000 -0.982711
vn -0.274721 0.000000 0.961524
vn -0.242536 0.000000 -0.970142
vn -0.014491 0.000000 0.999895
vn 0.531768 0.000000 0.846890
vn -0.000000 -1.000000 -0.000004
usemtl Material.000
s off
f 1//1 2//1 3//1 4//1
f 5//2 6//2 7//2 8//2
f 9//3 10//3 11//3 12//3
f 13//4 1//4 4//4 14//4
f 2//5 5//5 8//5 3//5
f 6//6 9//6 12//6 7//6
f 15//7 16//7 6//7 5//7
f 17//8 18//8 10//8 9//8
f 1//9 13//9 19//9 20//9
f 21//10 15//10 5//10 2//10
f 16//11 17//11 9//11 6//11
f 2//12 1//12 20//12 21//12
f 22//13 23//13 16//13 15//13
f 24//14 25//14 18//14 17//14
f 26//15 27//15 20//15 19//15
f 28//16 22//16 15//16 21//16
f 23//17 24//17 17//17 16//17
f 27//18 28//18 21//18 20//18
f 29//19 30//19 23//19 22//19
f 31//20 32//20 25//20 24//20
f 33//21 34//21 27//21 26//21
f 35//22 29//22 22//22 28//22
f 30//23 31//23 24//23 23//23
f 34//24 35//24 28//24 27//24
f 36//25 37//25 30//25 29//25
f 38//26 39//26 32//26 31//26
f 40//27 41//27 34//27 33//27
f 42//28 36//28 29//28 35//28
f 37//29 38//29 31//29 30//29
f 41//30 42//30 35//30 34//30
f 43//31 44//31 37//31 36//31
f 45//32 46//32 39//32 38//32
f 47//33 48//33 41//33 40//33
f 49//34 43//34 36//34 42//34
f 44//35 45//35 38//35 37//35
f 48//36 49//36 42//36 41//36
f 50//37 51//37 44//37 43//37
f 52//38 53//38 46//38 45//38
f 54//39 55//39 48//39 47//39
f 56//40 50//40 43//40 49//40
f 51//41 52//41 45//41 44//41
f 55//42 56//42 49//42 48//42
f 57//43 58//43 51//43 50//43
f 59//44 60//44 53//44 52//44
f 61//45 62//45 55//45 54//45
f 63//46 57//46 50//46 56//46
f 58//47 59//47 52//47 51//47
f 62//48 63//48 56//48 55//48
f 64//49 65//49 58//49 57//49
f 66//50 67//50 60//50 59//50
f 68//51 69//51 62//51 61//51
f 70//52 64//52 57//52 63//52
f 65//53 66//53 59//53 58//53
f 69//54 70//54 63//54 62//54
f 71//55 72//55 65//55 64//55
f 73//56 74//56 67//56 66//56
f 75//57 76//57 69//57 68//57
f 77//58 71//58 64//58 70//58
f 72//59 73//59 66//59 65//59
f 76//60 77//60 70//60 69//60
f 78//61 79//61 72//61 71//61
f 80//62 81//62 74//62 73//62
f 82//63 83//63 76//63 75//63
f 84//64 78//64 71//64 77//64
f 79//65 80//65 73//65 72//65
f 83//66 84//66 77//66 76//66
f 8//67 7//67 79//67 78//67
f 12//68 11//68 81//68 80//68
f 14//69 4//69 83//69 82//69
f 3//70 8//70 78//70 84//70
f 7//71 12//71 80//71 79//71
f 33//72 26//72 19//72
f 33//73 19//73 13//73
f 40//73 33//73 13//73
f 14//73 40//73 13//73
f 14//73 47//73 40//73
f 14//73 82//73 47//73
f 82//73 54//73 47//73
f 82//73 75//73 54//73
f 75//73 61//73 54//73
f 75//72 68//72 61//72
f 18//74 25//74 32//74
f 10//74 18//74 32//74
f 10//74 32//74 39//74
f 11//74 10//74 39//74
f 11//74 39//74 46//74
f 81//74 11//74 46//74
f 81//74 46//74 53//74
f 81//74 53//74 74//74
f 53//74 60//74 74//74
f 60//74 67//74 74//74
f 4//75 3//75 84//75 83//75
usemtl Material.002
f 85//76 86//76 87//76 88//76
f 89//76 87//76 86//76 90//76
f 85//76 90//76 89//76 88//76
f 91//77 92//77 88//77 89//77
f 93//78 92//78 88//78 87//78
f 91//79 93//79 87//79 89//79
f 94//80 95//80 93//80 91//80
f 94//81 96//81 92//81 91//81
f 95//82 96//82 92//82 93//82
f 97//83 98//83 96//83 95//83
f 99//84 97//84 95//84 94//84
f 99//85 98//85 96//85 94//85
f 100//86 101//86 102//86 103//86
f 104//87 105//87 106//87 107//87
f 101//88 108//88 109//88 102//88
f 105//89 110//89 111//89 106//89
f 108//90 112//90 113//90 109//90
f 110//91 114//91 115//91 111//91
f 112//92 116//92 117//92 113//92
f 114//93 100//93 103//93 115//93
f 116//94 118//94 119//94 117//94
f 118//95 104//95 107//95 119//95
f 101//96 100//96 114//96
f 101//97 114//97 110//97
f 101//98 110//98 108//98
f 110//98 105//98 108//98
f 105//74 112//74 108//74
f 105//74 104//74 112//74
f 104//74 116//74 112//74
f 104//74 118//74 116//74
f 103//99 102//99 115//99
f 102//100 111//100 115//100
f 102//101 109//101 111//101
f 109//73 106//73 111//73
f 109//73 113//73 106//73
f 113//101 107//101 106//101
f 113//101 117//101 107//101
f 117//73 119//73 107//73
f 120//102 121//102 122//102 123//102
f 124//103 125//103 126//103 127//103
f 121//104 128//104 129//104 122//104
f 125//105 130//105 131//105 126//105
f 128//106 132//106 133//106 129//106
f 130//107 134//107 135//107 131//107
f 132//108 136//108 137//108 133//108
f 134//109 120//109 123//109 135//109
f 136//110 138//110 139//110 137//110
f 138//111 124//111 127//111 139//111
f 124//74 138//74 136//74
f 124//74 136//74 132//74
f 124//74 132//74 128//74
f 125//74 124//74 128//74
f 121//97 125//97 128//97
f 121//98 130//98 125//98
f 121//112 120//112 130//112
f 120//74 134//74 130//74
f 137//101 139//101 127//101
f 133//73 137//73 127//73
f 129//101 133//101 127//101
f 129//73 127//73 126//73
f 122//100 129//100 126//100
f 122//73 126//73 131//73
f 123//72 122//72 131//72
f 123//73 131//73 135//73
