# Blender v2.63 (sub 0) OBJ File: 'apple.blend'
# www.blender.org
mtllib apple.mtl
o Sphere
v -0.007604 9.636311 -0.399864
v -0.364400 9.636311 0.218125
v 0.349192 9.636311 0.218125
v -0.007604 9.636311 -0.399864
v -0.364400 9.636311 0.218125
v 0.349192 9.636311 0.218125
v -0.007604 10.063716 -0.399864
v -0.364400 10.063716 0.218125
v 0.349192 10.063716 0.218125
v -0.007604 10.605497 -1.052911
v -0.260684 10.794558 -0.657431
v 0.245476 10.794558 -0.657431
v -0.007604 10.817590 -2.081737
v -0.175406 11.049135 -1.906069
v 0.160198 11.049135 -1.906069
v -0.007604 9.636311 0.012129
v 1.486123 9.636311 2.873037
v -0.159299 9.636311 0.989017
v 0.256433 9.636311 2.088516
v 2.951891 9.636311 3.333003
v 4.040941 9.636311 3.030303
v 4.130459 9.636311 1.872283
v 3.349765 9.636311 0.594354
v 1.960280 9.636311 -0.121633
v 0.584817 9.636311 -0.183024
v -0.007604 9.725359 0.012129
v 1.486123 9.725358 2.873037
v -0.159299 9.725358 0.989017
v 0.256433 9.725358 2.088516
v 2.951891 9.725358 3.333003
v 4.040941 9.725358 3.030303
v 4.130459 9.725358 1.872283
v 3.349765 9.725358 0.594354
v 1.960280 9.725358 -0.121633
v 0.584817 9.725358 -0.183024
v -0.007604 9.636311 0.012129
v -2.256073 9.636309 -2.303127
v -0.141176 9.636309 -0.967402
v -0.853563 9.636309 -1.902409
v -3.792156 9.636309 -2.325388
v -4.749425 9.636309 -1.724313
v -4.504542 9.636309 -0.588947
v -3.391439 9.636309 0.412846
v -1.855356 9.636309 0.702253
v -0.519632 9.636309 0.368322
v -0.007604 9.725358 0.012129
v -2.256073 9.725358 -2.303127
v -0.141176 9.725358 -0.967402
v -0.853563 9.725358 -1.902409
v -3.792156 9.725358 -2.325388
v -4.749425 9.725358 -1.724313
v -4.504542 9.725358 -0.588947
v -3.391439 9.725358 0.412846
v -1.855356 9.725358 0.702253
v -0.519632 9.725358 0.368322
v -1.986878 9.614611 0.000000
v -3.671271 8.489135 0.000000
v -4.796747 6.804742 0.000000
v -5.191961 4.817864 0.000000
v -4.796747 2.830986 0.000000
v -3.671271 1.146593 0.000000
v -1.986878 0.021117 0.000000
v -1.720687 9.614611 -0.993438
v -3.179414 8.489135 -1.835635
v -4.154104 6.804741 -2.398373
v -4.496370 4.817864 -2.595980
v -4.154104 2.830986 -2.398373
v -3.179414 1.146593 -1.835635
v -1.720687 0.021117 -0.993439
v -0.993439 9.614611 -1.720686
v -1.835636 8.489135 -3.179413
v -2.398373 6.804741 -4.154104
v -2.595981 4.817864 -4.496369
v -2.398373 2.830986 -4.154104
v -1.835636 1.146593 -3.179413
v -0.993439 0.021117 -1.720686
v -0.000001 9.614611 -1.986877
v -0.000001 8.489135 -3.671270
v -0.000001 6.804741 -4.796745
v -0.000001 4.817864 -5.191960
v -0.000001 2.830986 -4.796745
v -0.000001 1.146593 -3.671270
v -0.000001 0.021117 -1.986877
v 0.993438 9.614611 -1.720686
v 1.835634 8.489135 -3.179413
v 2.398372 6.804741 -4.154103
v 2.595979 4.817864 -4.496369
v 2.398372 2.830986 -4.154103
v 1.835634 1.146593 -3.179413
v 0.993438 0.021117 -1.720686
v 1.720685 9.614611 -0.993438
v 3.179412 8.489135 -1.835635
v 4.154103 6.804741 -2.398372
v 4.496368 4.817864 -2.595980
v 4.154103 2.830986 -2.398372
v 3.179412 1.146593 -1.835635
v 1.720685 0.021117 -0.993438
v 1.986876 9.614611 0.000000
v 3.671269 8.489135 0.000000
v 4.796744 6.804741 0.000000
v 5.191959 4.817864 0.000000
v 4.796744 2.830986 0.000000
v 3.671269 1.146593 0.000000
v 1.986876 0.021117 0.000000
v 1.720685 9.614611 0.993438
v 3.179412 8.489135 1.835635
v 4.154102 6.804741 2.398373
v 4.496368 4.817864 2.595980
v 4.154102 2.830986 2.398373
v 3.179412 1.146593 1.835635
v 1.720685 0.021117 0.993439
v 0.993437 9.614611 1.720686
v 1.835634 8.489135 3.179413
v 2.398372 6.804741 4.154104
v 2.595979 4.817864 4.496369
v 2.398372 2.830986 4.154104
v 1.835634 1.146593 3.179413
v 0.993438 0.021117 1.720686
v -0.000001 9.614611 1.986876
v -0.000001 8.489135 3.671270
v -0.000001 6.804741 4.796745
v -0.000001 4.817864 5.191959
v -0.000001 2.830986 4.796745
v -0.000001 1.146593 3.671270
v -0.000001 0.021117 1.986877
v -0.993439 9.614611 1.720685
v -1.835636 8.489135 3.179413
v -2.398374 6.804741 4.154103
v -2.595981 4.817864 4.496368
v -2.398374 2.830986 4.154103
v -1.835636 1.146593 3.179413
v -0.993439 0.021117 1.720686
v -1.720686 9.614611 0.993438
v -3.179414 8.489135 1.835635
v -4.154104 6.804741 2.398372
v -4.496370 4.817864 2.595979
v -4.154104 2.830986 2.398372
v -3.179414 1.146593 1.835635
v -1.720687 0.021117 0.993438
vn -0.625751 0.691275 -0.361278
vn -0.803949 0.371746 -0.464156
vn -0.928312 0.371746 0.000000
vn -0.722556 0.691275 0.000000
vn -0.866024 0.000000 -0.499985
vn -0.803949 -0.371746 -0.464156
vn -0.928312 -0.371746 0.000000
vn -1.000000 0.000000 0.000000
vn -0.625751 -0.691275 -0.361278
vn -0.288583 -0.942808 -0.166601
vn -0.333232 -0.942808 0.000000
vn -0.722556 -0.691275 0.000000
vn -0.288614 0.942839 -0.166570
vn -0.333232 0.942808 0.000031
vn -0.499985 0.000000 -0.866024
vn -0.464156 -0.371746 -0.803949
vn -0.361278 -0.691275 -0.625751
vn -0.166601 -0.942808 -0.288583
vn -0.166631 0.942839 -0.288552
vn -0.361278 0.691275 -0.625751
vn -0.464156 0.371746 -0.803949
vn 0.000000 0.000000 -1.000000
vn 0.000000 -0.371746 -0.928312
vn 0.000000 -0.691275 -0.722556
vn 0.000000 -0.942808 -0.333262
vn 0.000000 0.942839 -0.333201
vn 0.000000 0.691275 -0.722556
vn 0.000000 0.371746 -0.928312
vn 0.499985 0.000000 -0.866024
vn 0.464156 -0.371746 -0.803949
vn 0.361278 -0.691275 -0.625751
vn 0.166631 -0.942808 -0.288583
vn 0.166631 0.942839 -0.288552
vn 0.361278 0.691275 -0.625751
vn 0.464156 0.371746 -0.803949
vn 0.866024 0.000000 -0.499985
vn 0.803949 -0.371746 -0.464156
vn 0.625751 -0.691275 -0.361278
vn 0.288614 -0.942808 -0.166601
vn 0.288614 0.942839 -0.166570
vn 0.625751 0.691275 -0.361278
vn 0.803949 0.371746 -0.464156
vn 1.000000 0.000000 0.000000
vn 0.928312 -0.371746 0.000000
vn 0.722556 -0.691275 0.000000
vn 0.333262 -0.942808 0.000000
vn 0.333262 0.942808 0.000031
vn 0.722556 0.691275 0.000000
vn 0.928312 0.371746 0.000000
vn 0.866024 0.000000 0.499985
vn 0.803949 -0.371746 0.464156
vn 0.625751 -0.691275 0.361278
vn 0.288614 -0.942808 0.166631
vn 0.288614 0.942808 0.166662
vn 0.625751 0.691275 0.361278
vn 0.803949 0.371746 0.464156
vn 0.499985 0.000000 0.866024
vn 0.464156 -0.371746 0.803949
vn 0.361278 -0.691275 0.625751
vn 0.166631 -0.942808 0.288614
vn 0.166631 0.942808 0.288644
vn 0.361278 0.691275 0.625751
vn 0.464156 0.371746 0.803949
vn 0.000000 0.000000 1.000000
vn 0.000000 -0.371746 0.928312
vn 0.000000 -0.691275 0.722556
vn 0.000000 -0.942808 0.333262
vn 0.000000 0.942808 0.333293
vn 0.000000 0.691275 0.722556
vn 0.000000 0.371746 0.928312
vn -0.499985 0.000000 0.866024
vn -0.464156 -0.371746 0.803949
vn -0.361278 -0.691275 0.625751
vn -0.166601 -0.942808 0.288614
vn -0.166601 0.942808 0.288644
vn -0.361278 0.691275 0.625751
vn -0.464156 0.371746 0.803949
vn -0.866024 0.000000 0.499985
vn -0.803949 -0.371746 0.464156
vn -0.625751 -0.691275 0.361278
vn -0.288583 -0.942808 0.166631
vn -0.288583 0.942808 0.166662
vn -0.625751 0.691275 0.361278
vn -0.803949 0.371746 0.464156
vn 0.000000 0.000000 0.000000
vn -0.866025 0.000000 0.500000
vn -0.866025 0.000000 -0.500000
vn 0.000000 0.767699 0.640811
vn -0.808837 0.423766 0.407682
vn -0.808837 -0.423766 -0.407682
vn -0.793521 -0.589631 -0.150533
vn 0.000000 0.979842 0.199774
vn -0.793521 0.589631 0.150533
vn 0.312876 0.000000 0.949794
vn -0.997025 0.000000 -0.077073
vn 0.988157 0.000000 0.153445
vn -0.853360 0.000000 0.521322
vn 0.935369 0.000000 -0.353673
vn -0.458053 0.000000 0.888925
vn 0.537847 0.000000 -0.843042
vn -0.044588 0.000000 0.999005
vn 0.299409 0.000000 -0.954125
vn -0.267797 0.000000 -0.963476
vn -0.000000 -1.000000 0.000004
vn -0.000000 -1.000000 0.000001
vn -0.000000 -1.000000 -0.000001
vn 0.000000 -1.000000 -0.000000
vn 0.000000 1.000000 0.000000
vn -0.571064 0.000000 -0.820906
vn 0.977521 0.000000 -0.210838
vn -0.990830 0.000000 0.135113
vn 0.668965 0.000000 -0.743294
vn -0.795432 0.000000 0.606043
vn 0.185148 0.000000 -0.982711
vn -0.274721 0.000000 0.961524
vn -0.242536 0.000000 -0.970142
vn -0.014491 0.000000 0.999895
vn 0.531768 0.000000 0.846890
vn -0.000000 1.000000 -0.000002
vn -0.000000 1.000000 0.000001
vn 0.000000 1.000000 0.000005
usemtl Material.001
s 1
f 64//1 65//2 58//3 57//4
f 66//5 67//6 60//7 59//8
f 68//9 69//10 62//11 61//12
f 63//13 64//1 57//4 56//14
f 65//2 66//5 59//8 58//3
f 67//6 68//9 61//12 60//7
f 73//15 74//16 67//6 66//5
f 75//17 76//18 69//10 68//9
f 70//19 71//20 64//1 63//13
f 72//21 73//15 66//5 65//2
f 74//16 75//17 68//9 67//6
f 71//20 72//21 65//2 64//1
f 80//22 81//23 74//16 73//15
f 82//24 83//25 76//18 75//17
f 77//26 78//27 71//20 70//19
f 79//28 80//22 73//15 72//21
f 81//23 82//24 75//17 74//16
f 78//27 79//28 72//21 71//20
f 87//29 88//30 81//23 80//22
f 89//31 90//32 83//25 82//24
f 84//33 85//34 78//27 77//26
f 86//35 87//29 80//22 79//28
f 88//30 89//31 82//24 81//23
f 85//34 86//35 79//28 78//27
f 94//36 95//37 88//30 87//29
f 96//38 97//39 90//32 89//31
f 91//40 92//41 85//34 84//33
f 93//42 94//36 87//29 86//35
f 95//37 96//38 89//31 88//30
f 92//41 93//42 86//35 85//34
f 101//43 102//44 95//37 94//36
f 103//45 104//46 97//39 96//38
f 98//47 99//48 92//41 91//40
f 100//49 101//43 94//36 93//42
f 102//44 103//45 96//38 95//37
f 99//48 100//49 93//42 92//41
f 108//50 109//51 102//44 101//43
f 110//52 111//53 104//46 103//45
f 105//54 106//55 99//48 98//47
f 107//56 108//50 101//43 100//49
f 109//51 110//52 103//45 102//44
f 106//55 107//56 100//49 99//48
f 115//57 116//58 109//51 108//50
f 117//59 118//60 111//53 110//52
f 112//61 113//62 106//55 105//54
f 114//63 115//57 108//50 107//56
f 116//58 117//59 110//52 109//51
f 113//62 114//63 107//56 106//55
f 122//64 123//65 116//58 115//57
f 124//66 125//67 118//60 117//59
f 119//68 120//69 113//62 112//61
f 121//70 122//64 115//57 114//63
f 123//65 124//66 117//59 116//58
f 120//69 121//70 114//63 113//62
f 129//71 130//72 123//65 122//64
f 131//73 132//74 125//67 124//66
f 126//75 127//76 120//69 119//68
f 128//77 129//71 122//64 121//70
f 130//72 131//73 124//66 123//65
f 127//76 128//77 121//70 120//69
f 136//78 137//79 130//72 129//71
f 138//80 139//81 132//74 131//73
f 133//82 134//83 127//76 126//75
f 135//84 136//78 129//71 128//77
f 137//79 138//80 131//73 130//72
f 134//83 135//84 128//77 127//76
f 59//8 60//7 137//79 136//78
f 61//12 62//11 139//81 138//80
f 56//14 57//4 134//83 133//82
f 58//3 59//8 136//78 135//84
f 60//7 61//12 138//80 137//79
f 84//33 77//26 70//19
f 84//33 70//19 63//13
f 91//40 84//33 63//13
f 56//14 91//40 63//13
f 56//14 98//47 91//40
f 56//14 133//82 98//47
f 133//82 105//54 98//47
f 133//82 126//75 105//54
f 126//75 112//61 105//54
f 126//75 119//68 112//61
f 76//18 83//25 90//32
f 69//10 76//18 90//32
f 69//10 90//32 97//39
f 62//11 69//10 97//39
f 62//11 97//39 104//46
f 139//81 62//11 104//46
f 139//81 104//46 111//53
f 139//81 111//53 132//74
f 111//53 118//60 132//74
f 118//60 125//67 132//74
f 57//4 58//3 135//84 134//83
usemtl Material.004
s off
f 1//85 2//85 5//85 4//85
f 6//85 5//85 2//85 3//85
f 1//85 3//85 6//85 4//85
f 9//86 7//86 4//86 6//86
f 8//87 7//87 4//87 5//87
f 9//64 8//64 5//64 6//64
f 12//88 11//88 8//88 9//88
f 12//89 10//89 7//89 9//89
f 11//90 10//90 7//90 8//90
f 14//91 13//91 10//91 11//91
f 15//92 14//92 11//92 12//92
f 15//93 13//93 10//93 12//93
f 35//94 26//94 16//94 25//94
f 31//95 32//95 22//95 21//95
f 26//96 28//96 18//96 16//96
f 32//97 33//97 23//97 22//97
f 28//98 29//98 19//98 18//98
f 33//99 34//99 24//99 23//99
f 29//100 27//100 17//100 19//100
f 34//101 35//101 25//101 24//101
f 27//102 30//102 20//102 17//102
f 30//103 31//103 21//103 20//103
f 26//104 35//104 34//104
f 26//105 34//105 33//105
f 26//106 33//106 28//106
f 33//107 32//107 28//107
f 32//107 29//107 28//107
f 32//107 31//107 29//107
f 31//107 27//107 29//107
f 31//107 30//107 27//107
f 25//108 16//108 24//108
f 16//108 23//108 24//108
f 16//108 18//108 23//108
f 18//108 22//108 23//108
f 18//108 19//108 22//108
f 19//108 21//108 22//108
f 19//108 17//108 21//108
f 17//108 20//108 21//108
f 55//109 46//109 36//109 45//109
f 51//110 52//110 42//110 41//110
f 46//111 48//111 38//111 36//111
f 52//112 53//112 43//112 42//112
f 48//113 49//113 39//113 38//113
f 53//114 54//114 44//114 43//114
f 49//115 47//115 37//115 39//115
f 54//116 55//116 45//116 44//116
f 47//117 50//117 40//117 37//117
f 50//118 51//118 41//118 40//118
f 51//107 50//107 47//107
f 51//107 47//107 49//107
f 51//107 49//107 48//107
f 52//107 51//107 48//107
f 46//107 52//107 48//107
f 46//107 53//107 52//107
f 46//107 55//107 53//107
f 55//107 54//107 53//107
f 37//108 40//108 41//108
f 39//108 37//108 41//108
f 38//108 39//108 41//108
f 38//108 41//108 42//108
f 36//119 38//119 42//119
f 36//120 42//120 43//120
f 45//121 36//121 43//121
f 45//108 43//108 44//108
