# Blender v2.63 (sub 0) OBJ File: 'apple.blend'
# www.blender.org
mtllib apple5.mtl
o Mesh_Sphere.001
v -3.934524 10.571130 -2.271596
v -5.140704 8.486693 -2.967985
v -5.935973 8.486692 0.000001
v -4.543197 10.571130 0.000002
v -5.564258 6.027933 -3.212524
v -5.140704 3.569171 -2.967986
v -5.935973 3.569171 0.000001
v -6.425051 6.027932 0.000001
v -3.934524 1.484735 -2.271598
v -2.129349 0.091959 -1.229380
v -2.458761 0.091959 0.000000
v -4.543197 1.484735 0.000000
v -2.129349 11.963905 -1.229378
v -2.458761 11.963905 0.000002
v -3.212526 6.027933 -5.564255
v -2.967987 3.569172 -5.140701
v -2.271599 1.484736 -3.934523
v -1.229381 0.091959 -2.129349
v -1.229381 11.963905 -2.129346
v -2.271599 10.571131 -3.934521
v -2.967987 8.486693 -5.140700
v -0.000001 6.027933 -6.425048
v -0.000001 3.569172 -5.935972
v -0.000001 1.484736 -4.543196
v -0.000001 0.091959 -2.458760
v -0.000001 11.963905 -2.458758
v -0.000001 10.571131 -4.543194
v -0.000001 8.486693 -5.935971
v 3.212524 6.027933 -5.564255
v 2.967985 3.569172 -5.140701
v 2.271597 1.484736 -3.934523
v 1.229379 0.091959 -2.129348
v 1.229379 11.963905 -2.129346
v 2.271597 10.571131 -3.934521
v 2.967985 8.486693 -5.140700
v 5.564255 6.027933 -3.212523
v 5.140701 3.569171 -2.967984
v 3.934522 1.484735 -2.271598
v 2.129348 0.091959 -1.229380
v 2.129347 11.963905 -1.229378
v 3.934522 10.571130 -2.271596
v 5.140701 8.486693 -2.967983
v 6.425048 6.027932 0.000001
v 5.935970 3.569171 0.000001
v 4.543195 1.484735 0.000000
v 2.458759 0.091959 0.000000
v 2.458759 11.963905 0.000002
v 4.543195 10.571130 0.000002
v 5.935970 8.486692 0.000001
v 5.564254 6.027932 3.212526
v 5.140701 3.569170 2.967987
v 3.934522 1.484735 2.271598
v 2.129347 0.091959 1.229380
v 2.129347 11.963905 1.229382
v 3.934522 10.571130 2.271600
v 5.140701 8.486691 2.967988
v 3.212523 6.027931 5.564257
v 2.967984 3.569170 5.140702
v 2.271597 1.484734 3.934523
v 1.229379 0.091959 2.129349
v 1.229379 11.963905 2.129350
v 2.271597 10.571129 3.934525
v 2.967984 8.486691 5.140703
v -0.000002 6.027931 6.425050
v -0.000001 3.569170 5.935973
v -0.000001 1.484734 4.543197
v -0.000001 0.091959 2.458760
v -0.000001 11.963905 2.458761
v -0.000001 10.571129 4.543198
v -0.000001 8.486691 5.935974
v -3.212526 6.027931 5.564256
v -2.967987 3.569170 5.140702
v -2.271599 1.484734 3.934523
v -1.229381 0.091959 2.129348
v -1.229381 11.963905 2.129350
v -2.271599 10.571129 3.934525
v -2.967987 8.486691 5.140703
v -5.564257 6.027932 3.212525
v -5.140704 3.569170 2.967985
v -3.934524 1.484735 2.271598
v -2.129349 0.091959 1.229380
v -2.129349 11.963905 1.229381
v -3.934524 10.571130 2.271600
v -5.140704 8.486691 2.967986
v -0.009410 11.990758 -0.494830
v -0.450945 11.990758 0.269932
v -0.450945 11.990758 0.269932
v -0.009410 11.990758 -0.494830
v 0.432125 11.990758 0.269931
v 0.432125 11.990758 0.269931
v 0.432125 12.519673 0.269931
v -0.009410 12.519673 -0.494830
v -0.450945 12.519673 0.269932
v 0.303776 13.424089 -0.813569
v -0.322596 13.424089 -0.813569
v -0.009410 13.190126 -1.302975
v -0.217065 13.739129 -2.358758
v -0.009410 13.452592 -2.576147
v 0.198245 13.739129 -2.358758
v 0.723710 12.100955 -0.226490
v -0.009410 12.100956 0.015011
v -0.009410 11.990759 0.015011
v 0.723710 11.990758 -0.226490
v 5.000664 12.100954 3.750001
v 5.111443 12.100955 2.316952
v 5.111443 11.990758 2.316952
v 5.000664 11.990757 3.750001
v -0.197133 12.100955 1.223910
v -0.197133 11.990758 1.223910
v 4.145334 12.100955 0.735515
v 4.145334 11.990758 0.735515
v 0.317336 12.100955 2.584540
v 0.317336 11.990758 2.584540
v 2.425846 12.100955 -0.150519
v 2.425846 11.990758 -0.150519
v 1.839077 12.100954 3.555385
v 1.839077 11.990757 3.555385
v 3.652965 12.100954 4.124592
v 3.652965 11.990757 4.124592
v -0.643045 12.100954 0.455800
v -0.009410 12.100955 0.015011
v -0.009410 11.990758 0.015011
v -0.643045 11.990757 0.455800
v -5.877412 12.100954 -2.133835
v -5.574370 12.100954 -0.728820
v -5.574370 11.990757 -0.728820
v -5.877412 11.990757 -2.133835
v -0.174706 12.100954 -1.197158
v -0.174706 11.990757 -1.197158
v -4.196905 12.100954 0.510899
v -4.196905 11.990757 0.510899
v -1.056284 12.100954 -2.354229
v -1.056284 11.990757 -2.354229
v -2.296003 12.100954 0.869040
v -2.296003 11.990757 0.869040
v -2.791890 12.100954 -2.850117
v -2.791890 11.990757 -2.850117
v -4.692792 12.100954 -2.877666
v -4.692792 11.990757 -2.877666
vn -0.811572 0.542275 -0.217460
vn -0.948576 -0.188683 -0.254170
vn -0.549515 -0.822407 -0.147242
vn -0.549515 0.822407 -0.147242
vn -0.948576 0.188684 -0.254170
vn -0.811572 -0.542275 -0.217460
vn -0.694406 -0.188683 -0.694406
vn -0.402273 -0.822407 -0.402273
vn -0.402273 0.822407 -0.402272
vn -0.694406 0.188684 -0.694406
vn -0.594112 -0.542275 -0.594112
vn -0.594112 0.542275 -0.594112
vn -0.254170 -0.188683 -0.948576
vn -0.147242 -0.822407 -0.549515
vn -0.147242 0.822407 -0.549514
vn -0.254170 0.188684 -0.948576
vn -0.217460 -0.542275 -0.811572
vn -0.217460 0.542275 -0.811572
vn 0.254170 -0.188683 -0.948576
vn 0.147242 -0.822407 -0.549515
vn 0.147242 0.822407 -0.549514
vn 0.254170 0.188684 -0.948576
vn 0.217460 -0.542275 -0.811572
vn 0.217460 0.542275 -0.811572
vn 0.694406 -0.188683 -0.694406
vn 0.402273 -0.822407 -0.402273
vn 0.402273 0.822407 -0.402272
vn 0.694406 0.188684 -0.694406
vn 0.594112 -0.542275 -0.594112
vn 0.594112 0.542275 -0.594112
vn 0.948576 -0.188684 -0.254170
vn 0.549515 -0.822407 -0.147242
vn 0.549515 0.822407 -0.147242
vn 0.948576 0.188684 -0.254170
vn 0.811572 -0.542275 -0.217460
vn 0.811572 0.542275 -0.217460
vn 0.948576 -0.188683 0.254170
vn 0.549515 -0.822407 0.147242
vn 0.549515 0.822407 0.147242
vn 0.948576 0.188683 0.254170
vn 0.811572 -0.542275 0.217460
vn 0.811572 0.542275 0.217460
vn 0.694406 -0.188683 0.694406
vn 0.402273 -0.822407 0.402273
vn 0.402273 0.822407 0.402273
vn 0.694406 0.188683 0.694406
vn 0.594112 -0.542275 0.594112
vn 0.594112 0.542275 0.594112
vn 0.254170 -0.188683 0.948576
vn 0.147242 -0.822407 0.549515
vn 0.147242 0.822407 0.549515
vn 0.254170 0.188683 0.948576
vn 0.217460 -0.542275 0.811572
vn 0.217460 0.542275 0.811572
vn -0.254170 -0.188683 0.948576
vn -0.147242 -0.822407 0.549515
vn -0.147242 0.822407 0.549515
vn -0.254170 0.188683 0.948576
vn -0.217460 -0.542275 0.811572
vn -0.217460 0.542275 0.811572
vn -0.694406 -0.188683 0.694406
vn -0.402273 -0.822407 0.402273
vn -0.402273 0.822407 0.402273
vn -0.694406 0.188683 0.694406
vn -0.594112 -0.542275 0.594112
vn -0.594112 0.542275 0.594112
vn -0.948576 -0.188683 0.254170
vn -0.549515 -0.822407 0.147242
vn -0.549515 0.822407 0.147242
vn -0.948576 0.188683 0.254170
vn -0.811572 -0.542275 0.217460
vn -0.000000 1.000000 0.000000
vn 0.000000 -1.000000 -0.000000
vn -0.811572 0.542275 0.217460
vn 0.000000 0.000000 0.000000
vn -0.866025 -0.000000 0.500000
vn -0.866026 0.000000 -0.499999
vn 0.000001 -0.000000 1.000000
vn 0.000000 0.767699 0.640811
vn -0.808837 0.423766 0.407682
vn -0.808838 -0.423766 -0.407682
vn -0.793521 -0.589630 -0.150533
vn 0.000000 0.979842 0.199774
vn -0.793521 0.589630 0.150533
vn 0.312877 -0.000000 0.949794
vn -0.997025 0.000000 -0.077073
vn 0.988157 -0.000000 0.153445
vn -0.853360 0.000000 0.521322
vn 0.935369 0.000000 -0.353673
vn -0.458053 -0.000000 0.888925
vn 0.537847 0.000000 -0.843043
vn -0.044588 -0.000000 0.999005
vn 0.299409 0.000000 -0.954125
vn -0.267796 0.000000 -0.963475
vn -0.000000 -1.000000 0.000003
vn -0.000000 -1.000000 0.000001
vn -0.000000 -1.000000 -0.000001
vn 0.000000 1.000000 -0.000003
vn 0.000000 1.000000 -0.000001
vn 0.000000 1.000000 0.000001
vn -0.571064 0.000000 -0.820906
vn 0.977521 0.000000 -0.210838
vn -0.990830 -0.000000 0.135113
vn 0.668965 0.000000 -0.743294
vn -0.795432 -0.000000 0.606043
vn 0.185148 0.000000 -0.982711
vn -0.274721 0.000000 0.961524
vn -0.242536 0.000000 -0.970142
vn -0.014491 0.000000 0.999895
vn 0.531768 0.000000 0.846890
vn -0.000000 -1.000000 -0.000002
vn 0.000000 1.000000 0.000002
usemtl Material.000
s off
f 1//1 2//1 3//1 4//1
f 5//2 6//2 7//2 8//2
f 9//3 10//3 11//3 12//3
f 13//4 1//4 4//4 14//4
f 2//5 5//5 8//5 3//5
f 6//6 9//6 12//6 7//6
f 15//7 16//7 6//7 5//7
f 17//8 18//8 10//8 9//8
f 1//9 13//9 19//9 20//9
f 21//10 15//10 5//10 2//10
f 16//11 17//11 9//11 6//11
f 2//12 1//12 20//12 21//12
f 22//13 23//13 16//13 15//13
f 24//14 25//14 18//14 17//14
f 26//15 27//15 20//15 19//15
f 28//16 22//16 15//16 21//16
f 23//17 24//17 17//17 16//17
f 27//18 28//18 21//18 20//18
f 29//19 30//19 23//19 22//19
f 31//20 32//20 25//20 24//20
f 33//21 34//21 27//21 26//21
f 35//22 29//22 22//22 28//22
f 30//23 31//23 24//23 23//23
f 34//24 35//24 28//24 27//24
f 36//25 37//25 30//25 29//25
f 38//26 39//26 32//26 31//26
f 40//27 41//27 34//27 33//27
f 42//28 36//28 29//28 35//28
f 37//29 38//29 31//29 30//29
f 41//30 42//30 35//30 34//30
f 43//31 44//31 37//31 36//31
f 45//32 46//32 39//32 38//32
f 47//33 48//33 41//33 40//33
f 49//34 43//34 36//34 42//34
f 44//35 45//35 38//35 37//35
f 48//36 49//36 42//36 41//36
f 50//37 51//37 44//37 43//37
f 52//38 53//38 46//38 45//38
f 54//39 55//39 48//39 47//39
f 56//40 50//40 43//40 49//40
f 51//41 52//41 45//41 44//41
f 55//42 56//42 49//42 48//42
f 57//43 58//43 51//43 50//43
f 59//44 60//44 53//44 52//44
f 61//45 62//45 55//45 54//45
f 63//46 57//46 50//46 56//46
f 58//47 59//47 52//47 51//47
f 62//48 63//48 56//48 55//48
f 64//49 65//49 58//49 57//49
f 66//50 67//50 60//50 59//50
f 68//51 69//51 62//51 61//51
f 70//52 64//52 57//52 63//52
f 65//53 66//53 59//53 58//53
f 69//54 70//54 63//54 62//54
f 71//55 72//55 65//55 64//55
f 73//56 74//56 67//56 66//56
f 75//57 76//57 69//57 68//57
f 77//58 71//58 64//58 70//58
f 72//59 73//59 66//59 65//59
f 76//60 77//60 70//60 69//60
f 78//61 79//61 72//61 71//61
f 80//62 81//62 74//62 73//62
f 82//63 83//63 76//63 75//63
f 84//64 78//64 71//64 77//64
f 79//65 80//65 73//65 72//65
f 83//66 84//66 77//66 76//66
f 8//67 7//67 79//67 78//67
f 12//68 11//68 81//68 80//68
f 14//69 4//69 83//69 82//69
f 3//70 8//70 78//70 84//70
f 7//71 12//71 80//71 79//71
f 33//72 26//72 19//72
f 33//72 19//72 13//72
f 40//72 33//72 13//72
f 14//72 40//72 13//72
f 14//72 47//72 40//72
f 14//72 82//72 47//72
f 82//72 54//72 47//72
f 82//72 75//72 54//72
f 75//72 61//72 54//72
f 75//72 68//72 61//72
f 18//73 25//73 32//73
f 10//73 18//73 32//73
f 10//73 32//73 39//73
f 11//73 10//73 39//73
f 11//73 39//73 46//73
f 81//73 11//73 46//73
f 81//73 46//73 53//73
f 81//73 53//73 74//73
f 53//73 60//73 74//73
f 60//73 67//73 74//73
f 4//74 3//74 84//74 83//74
usemtl Material.002
f 85//75 86//75 87//75 88//75
f 89//75 87//75 86//75 90//75
f 85//75 90//75 89//75 88//75
f 91//76 92//76 88//76 89//76
f 93//77 92//77 88//77 87//77
f 91//78 93//78 87//78 89//78
f 94//79 95//79 93//79 91//79
f 94//80 96//80 92//80 91//80
f 95//81 96//81 92//81 93//81
f 97//82 98//82 96//82 95//82
f 99//83 97//83 95//83 94//83
f 99//84 98//84 96//84 94//84
f 100//85 101//85 102//85 103//85
f 104//86 105//86 106//86 107//86
f 101//87 108//87 109//87 102//87
f 105//88 110//88 111//88 106//88
f 108//89 112//89 113//89 109//89
f 110//90 114//90 115//90 111//90
f 112//91 116//91 117//91 113//91
f 114//92 100//92 103//92 115//92
f 116//93 118//93 119//93 117//93
f 118//94 104//94 107//94 119//94
f 101//95 100//95 114//95
f 101//96 114//96 110//96
f 101//97 110//97 108//97
f 110//73 105//73 108//73
f 105//73 112//73 108//73
f 105//97 104//97 112//97
f 104//97 116//97 112//97
f 104//73 118//73 116//73
f 103//98 102//98 115//98
f 102//99 111//99 115//99
f 102//100 109//100 111//100
f 109//72 106//72 111//72
f 109//72 113//72 106//72
f 113//100 107//100 106//100
f 113//100 117//100 107//100
f 117//72 119//72 107//72
f 120//101 121//101 122//101 123//101
f 124//102 125//102 126//102 127//102
f 121//103 128//103 129//103 122//103
f 125//104 130//104 131//104 126//104
f 128//105 132//105 133//105 129//105
f 130//106 134//106 135//106 131//106
f 132//107 136//107 137//107 133//107
f 134//108 120//108 123//108 135//108
f 136//109 138//109 139//109 137//109
f 138//110 124//110 127//110 139//110
f 124//73 138//73 136//73
f 124//73 136//73 132//73
f 124//73 132//73 128//73
f 125//73 124//73 128//73
f 121//96 125//96 128//96
f 121//73 130//73 125//73
f 121//111 120//111 130//111
f 120//73 134//73 130//73
f 137//72 139//72 127//72
f 133//72 137//72 127//72
f 129//72 133//72 127//72
f 129//72 127//72 126//72
f 122//99 129//99 126//99
f 122//72 126//72 131//72
f 123//112 122//112 131//112
f 123//72 131//72 135//72
