# Blender v2.63 (sub 0) OBJ File: 'apple.blend'
# www.blender.org
mtllib apple.mtl
o Sphere
v -0.076040 98.602219 -3.998640
v -3.644001 98.602219 2.181249
v 3.491921 98.602219 2.181248
v -0.076040 98.602219 -3.998640
v -3.644001 98.602219 2.181249
v 3.491921 98.602219 2.181248
v -0.076040 102.876274 -3.998640
v -3.644001 102.876274 2.181249
v 3.491921 102.876274 2.181248
v -0.076040 108.294083 -10.529107
v -2.606836 110.184692 -6.574313
v 2.454756 110.184692 -6.574314
v -0.076040 110.415016 -20.817364
v -1.754061 112.730469 -19.060688
v 1.601982 112.730469 -19.060688
v -0.076040 98.602226 0.121286
v 14.861227 98.602219 28.730370
v -1.592992 98.602219 9.890170
v 2.564334 98.602219 20.885160
v 29.518911 98.602219 33.330021
v 40.409409 98.602219 30.303024
v 41.304592 98.602219 18.722834
v 33.497650 98.602219 5.943537
v 19.602800 98.602219 -1.216334
v 5.848165 98.602219 -1.830236
v -0.076040 99.492706 0.121286
v 14.861227 99.492699 28.730370
v -1.592992 99.492699 9.890170
v 2.564334 99.492699 20.885160
v 29.518911 99.492699 33.330021
v 40.409409 99.492699 30.303024
v 41.304592 99.492699 18.722834
v 33.497650 99.492699 5.943537
v 19.602800 99.492699 -1.216334
v 5.848165 99.492699 -1.830236
v -0.076040 98.602219 0.121286
v -22.560728 98.602203 -23.031263
v -1.411764 98.602203 -9.674024
v -8.535626 98.602203 -19.024092
v -37.921555 98.602203 -23.253883
v -47.494244 98.602203 -17.243124
v -45.045422 98.602203 -5.889471
v -33.914387 98.602203 4.128458
v -18.553564 98.602203 7.022527
v -5.196322 98.602203 3.683217
v -0.076040 99.492699 0.121286
v -22.560728 99.492691 -23.031263
v -1.411764 99.492691 -9.674024
v -8.535626 99.492691 -19.024092
v -37.921555 99.492691 -23.253883
v -47.494244 99.492691 -17.243124
v -45.045422 99.492691 -5.889471
v -33.914387 99.492691 4.128458
v -18.553564 99.492691 7.022527
v -5.196322 99.492691 3.683217
v -19.868776 98.385223 0.000000
v -36.712708 87.130470 0.000000
v -47.967464 70.286537 0.000000
v -51.919609 50.417759 0.000000
v -47.967464 30.548979 0.000000
v -36.712708 13.705054 0.000000
v -19.868776 2.450296 0.000000
v -17.206865 98.385223 -9.934383
v -31.794138 87.130470 -18.356348
v -41.541042 70.286530 -23.983727
v -44.963699 50.417755 -25.959799
v -41.541042 30.548979 -23.983727
v -31.794138 13.705054 -18.356348
v -17.206865 2.450296 -9.934384
v -9.934391 98.385223 -17.206856
v -18.356356 87.130470 -31.794128
v -23.983732 70.286530 -41.541031
v -25.959805 50.417755 -44.963692
v -23.983732 30.548979 -41.541031
v -18.356356 13.705054 -31.794128
v -9.934392 2.450296 -17.206858
v -0.000007 98.385223 -19.868767
v -0.000007 87.130470 -36.712696
v -0.000007 70.286530 -47.967449
v -0.000006 50.417755 -51.919594
v -0.000007 30.548979 -47.967449
v -0.000007 13.705054 -36.712696
v -0.000007 2.450296 -19.868767
v 9.934376 98.385223 -17.206856
v 18.356340 87.130470 -31.794128
v 23.983719 70.286530 -41.541031
v 25.959791 50.417755 -44.963688
v 23.983719 30.548979 -41.541031
v 18.356340 13.705054 -31.794128
v 9.934377 2.450296 -17.206856
v 17.206848 98.385223 -9.934381
v 31.794121 87.130470 -18.356348
v 41.541023 70.286530 -23.983723
v 44.963680 50.417755 -25.959795
v 41.541023 30.548979 -23.983723
v 31.794121 13.705054 -18.356348
v 17.206850 2.450296 -9.934382
v 19.868757 98.385223 0.000001
v 36.712688 87.130470 0.000001
v 47.967442 70.286530 0.000004
v 51.919586 50.417755 0.000003
v 47.967442 30.548979 0.000004
v 36.712688 13.705054 0.000001
v 19.868759 2.450296 0.000002
v 17.206846 98.385223 9.934383
v 31.794121 87.130470 18.356348
v 41.541019 70.286530 23.983728
v 44.963676 50.417755 25.959801
v 41.541019 30.548979 23.983728
v 31.794121 13.705054 18.356348
v 17.206848 2.450296 9.934385
v 9.934373 98.385223 17.206856
v 18.356340 87.130470 31.794128
v 23.983715 70.286530 41.541031
v 25.959784 50.417755 44.963688
v 23.983715 30.548979 41.541031
v 18.356340 13.705054 31.794128
v 9.934375 2.450296 17.206858
v -0.000009 98.385223 19.868763
v -0.000008 87.130470 36.712696
v -0.000012 70.286530 47.967449
v -0.000012 50.417755 51.919590
v -0.000012 30.548979 47.967449
v -0.000008 13.705054 36.712696
v -0.000010 2.450296 19.868767
v -9.934391 98.385223 17.206852
v -18.356356 87.130470 31.794128
v -23.983736 70.286530 41.541031
v -25.959808 50.417755 44.963680
v -23.983736 30.548979 41.541031
v -18.356356 13.705054 31.794128
v -9.934393 2.450296 17.206856
v -17.206861 98.385223 9.934380
v -31.794138 87.130470 18.356348
v -41.541042 70.286530 23.983723
v -44.963696 50.417755 25.959789
v -41.541042 30.548979 23.983723
v -31.794138 13.705054 18.356348
v -17.206865 2.450296 9.934382
vn -0.811572 0.542275 -0.217460
vn -0.948576 -0.188683 -0.254170
vn -0.549515 -0.822407 -0.147242
vn -0.549515 0.822407 -0.147242
vn -0.948576 0.188683 -0.254170
vn -0.811572 -0.542275 -0.217460
vn -0.694406 -0.188683 -0.694406
vn -0.402273 -0.822407 -0.402273
vn -0.402273 0.822407 -0.402273
vn -0.694406 0.188683 -0.694406
vn -0.594112 -0.542275 -0.594112
vn -0.594112 0.542275 -0.594112
vn -0.254170 -0.188684 -0.948576
vn -0.147242 -0.822407 -0.549515
vn -0.147242 0.822407 -0.549515
vn -0.254170 0.188684 -0.948576
vn -0.217460 -0.542275 -0.811572
vn -0.217460 0.542275 -0.811572
vn 0.254170 -0.188683 -0.948576
vn 0.147242 -0.822407 -0.549515
vn 0.147242 0.822407 -0.549515
vn 0.254170 0.188683 -0.948576
vn 0.217460 -0.542275 -0.811572
vn 0.217460 0.542275 -0.811572
vn 0.694406 -0.188683 -0.694406
vn 0.402273 -0.822407 -0.402273
vn 0.402273 0.822407 -0.402273
vn 0.694406 0.188683 -0.694406
vn 0.594112 -0.542275 -0.594112
vn 0.594112 0.542275 -0.594112
vn 0.948576 -0.188683 -0.254170
vn 0.549515 -0.822407 -0.147242
vn 0.549515 0.822407 -0.147242
vn 0.948576 0.188683 -0.254170
vn 0.811572 -0.542275 -0.217460
vn 0.811572 0.542275 -0.217460
vn 0.948576 -0.188683 0.254170
vn 0.549515 -0.822407 0.147242
vn 0.549515 0.822407 0.147242
vn 0.948576 0.188683 0.254170
vn 0.811572 -0.542275 0.217460
vn 0.811572 0.542275 0.217460
vn 0.694406 -0.188683 0.694406
vn 0.402273 -0.822407 0.402273
vn 0.402273 0.822407 0.402273
vn 0.694406 0.188683 0.694406
vn 0.594112 -0.542275 0.594112
vn 0.594112 0.542275 0.594112
vn 0.254170 -0.188683 0.948576
vn 0.147242 -0.822407 0.549515
vn 0.147242 0.822407 0.549515
vn 0.254170 0.188683 0.948576
vn 0.217460 -0.542275 0.811572
vn 0.217460 0.542275 0.811572
vn -0.254170 -0.188683 0.948576
vn -0.147242 -0.822407 0.549515
vn -0.147242 0.822407 0.549515
vn -0.254170 0.188683 0.948576
vn -0.217460 -0.542275 0.811572
vn -0.217460 0.542275 0.811572
vn -0.694406 -0.188683 0.694406
vn -0.402273 -0.822407 0.402273
vn -0.402273 0.822407 0.402273
vn -0.694406 0.188683 0.694406
vn -0.594112 -0.542275 0.594112
vn -0.594112 0.542275 0.594112
vn -0.948576 -0.188683 0.254170
vn -0.549515 -0.822407 0.147242
vn -0.549515 0.822407 0.147242
vn -0.948576 0.188683 0.254170
vn -0.811572 -0.542275 0.217460
vn -0.000000 1.000000 0.000000
vn -0.000000 -1.000000 0.000000
vn -0.811572 0.542275 0.217460
vn 0.000000 0.000000 0.000000
vn -0.866025 0.000000 0.500000
vn -0.866025 0.000000 -0.500000
vn 0.000000 0.000000 1.000000
vn 0.000000 0.767699 0.640811
vn -0.808837 0.423766 0.407682
vn -0.808837 -0.423766 -0.407682
vn -0.793521 -0.589630 -0.150533
vn 0.000000 0.979842 0.199774
vn -0.793521 0.589630 0.150533
vn 0.312876 0.000000 0.949794
vn -0.997025 0.000000 -0.077073
vn 0.988157 0.000000 0.153445
vn -0.853360 0.000000 0.521322
vn 0.935369 0.000000 -0.353673
vn -0.458054 0.000000 0.888925
vn 0.537847 0.000000 -0.843043
vn -0.044588 0.000000 0.999005
vn 0.299409 0.000000 -0.954125
vn -0.267797 0.000000 -0.963476
vn -0.000000 -1.000000 0.000003
vn -0.000000 -1.000000 0.000001
vn -0.000000 -1.000000 -0.000001
vn 0.000000 1.000000 -0.000003
vn 0.000000 1.000000 -0.000001
vn 0.000000 1.000000 0.000001
vn -0.571064 0.000000 -0.820906
vn 0.977521 0.000000 -0.210837
vn -0.990830 0.000000 0.135113
vn 0.668965 0.000000 -0.743294
vn -0.795432 0.000000 0.606043
vn 0.185148 0.000000 -0.982711
vn -0.274721 0.000000 0.961524
vn -0.242536 0.000000 -0.970142
vn -0.014491 0.000000 0.999895
vn 0.531768 0.000000 0.846890
vn -0.000000 -1.000000 -0.000002
vn -0.000000 1.000000 -0.000002
vn 0.000000 1.000000 0.000004
usemtl Material.001
s off
f 64//1 65//1 58//1 57//1
f 66//2 67//2 60//2 59//2
f 68//3 69//3 62//3 61//3
f 63//4 64//4 57//4 56//4
f 65//5 66//5 59//5 58//5
f 67//6 68//6 61//6 60//6
f 73//7 74//7 67//7 66//7
f 75//8 76//8 69//8 68//8
f 70//9 71//9 64//9 63//9
f 72//10 73//10 66//10 65//10
f 74//11 75//11 68//11 67//11
f 71//12 72//12 65//12 64//12
f 80//13 81//13 74//13 73//13
f 82//14 83//14 76//14 75//14
f 77//15 78//15 71//15 70//15
f 79//16 80//16 73//16 72//16
f 81//17 82//17 75//17 74//17
f 78//18 79//18 72//18 71//18
f 87//19 88//19 81//19 80//19
f 89//20 90//20 83//20 82//20
f 84//21 85//21 78//21 77//21
f 86//22 87//22 80//22 79//22
f 88//23 89//23 82//23 81//23
f 85//24 86//24 79//24 78//24
f 94//25 95//25 88//25 87//25
f 96//26 97//26 90//26 89//26
f 91//27 92//27 85//27 84//27
f 93//28 94//28 87//28 86//28
f 95//29 96//29 89//29 88//29
f 92//30 93//30 86//30 85//30
f 101//31 102//31 95//31 94//31
f 103//32 104//32 97//32 96//32
f 98//33 99//33 92//33 91//33
f 100//34 101//34 94//34 93//34
f 102//35 103//35 96//35 95//35
f 99//36 100//36 93//36 92//36
f 108//37 109//37 102//37 101//37
f 110//38 111//38 104//38 103//38
f 105//39 106//39 99//39 98//39
f 107//40 108//40 101//40 100//40
f 109//41 110//41 103//41 102//41
f 106//42 107//42 100//42 99//42
f 115//43 116//43 109//43 108//43
f 117//44 118//44 111//44 110//44
f 112//45 113//45 106//45 105//45
f 114//46 115//46 108//46 107//46
f 116//47 117//47 110//47 109//47
f 113//48 114//48 107//48 106//48
f 122//49 123//49 116//49 115//49
f 124//50 125//50 118//50 117//50
f 119//51 120//51 113//51 112//51
f 121//52 122//52 115//52 114//52
f 123//53 124//53 117//53 116//53
f 120//54 121//54 114//54 113//54
f 129//55 130//55 123//55 122//55
f 131//56 132//56 125//56 124//56
f 126//57 127//57 120//57 119//57
f 128//58 129//58 122//58 121//58
f 130//59 131//59 124//59 123//59
f 127//60 128//60 121//60 120//60
f 136//61 137//61 130//61 129//61
f 138//62 139//62 132//62 131//62
f 133//63 134//63 127//63 126//63
f 135//64 136//64 129//64 128//64
f 137//65 138//65 131//65 130//65
f 134//66 135//66 128//66 127//66
f 59//67 60//67 137//67 136//67
f 61//68 62//68 139//68 138//68
f 56//69 57//69 134//69 133//69
f 58//70 59//70 136//70 135//70
f 60//71 61//71 138//71 137//71
f 84//72 77//72 70//72
f 84//72 70//72 63//72
f 91//72 84//72 63//72
f 56//72 91//72 63//72
f 56//72 98//72 91//72
f 56//72 133//72 98//72
f 133//72 105//72 98//72
f 133//72 126//72 105//72
f 126//72 112//72 105//72
f 126//72 119//72 112//72
f 76//73 83//73 90//73
f 69//73 76//73 90//73
f 69//73 90//73 97//73
f 62//73 69//73 97//73
f 62//73 97//73 104//73
f 139//73 62//73 104//73
f 139//73 104//73 111//73
f 139//73 111//73 132//73
f 111//73 118//73 132//73
f 118//73 125//73 132//73
f 57//74 58//74 135//74 134//74
usemtl Material.004
f 1//75 2//75 5//75 4//75
f 6//75 5//75 2//75 3//75
f 1//75 3//75 6//75 4//75
f 9//76 7//76 4//76 6//76
f 8//77 7//77 4//77 5//77
f 9//78 8//78 5//78 6//78
f 12//79 11//79 8//79 9//79
f 12//80 10//80 7//80 9//80
f 11//81 10//81 7//81 8//81
f 14//82 13//82 10//82 11//82
f 15//83 14//83 11//83 12//83
f 15//84 13//84 10//84 12//84
f 35//85 26//85 16//85 25//85
f 31//86 32//86 22//86 21//86
f 26//87 28//87 18//87 16//87
f 32//88 33//88 23//88 22//88
f 28//89 29//89 19//89 18//89
f 33//90 34//90 24//90 23//90
f 29//91 27//91 17//91 19//91
f 34//92 35//92 25//92 24//92
f 27//93 30//93 20//93 17//93
f 30//94 31//94 21//94 20//94
f 26//95 35//95 34//95
f 26//96 34//96 33//96
f 26//97 33//97 28//97
f 33//73 32//73 28//73
f 32//73 29//73 28//73
f 32//73 31//73 29//73
f 31//73 27//73 29//73
f 31//73 30//73 27//73
f 25//98 16//98 24//98
f 16//99 23//99 24//99
f 16//100 18//100 23//100
f 18//72 22//72 23//72
f 18//72 19//72 22//72
f 19//72 21//72 22//72
f 19//72 17//72 21//72
f 17//72 20//72 21//72
f 55//101 46//101 36//101 45//101
f 51//102 52//102 42//102 41//102
f 46//103 48//103 38//103 36//103
f 52//104 53//104 43//104 42//104
f 48//105 49//105 39//105 38//105
f 53//106 54//106 44//106 43//106
f 49//107 47//107 37//107 39//107
f 54//108 55//108 45//108 44//108
f 47//109 50//109 40//109 37//109
f 50//110 51//110 41//110 40//110
f 51//73 50//73 47//73
f 51//73 47//73 49//73
f 51//73 49//73 48//73
f 52//73 51//73 48//73
f 46//96 52//96 48//96
f 46//73 53//73 52//73
f 46//111 55//111 53//111
f 55//73 54//73 53//73
f 37//72 40//72 41//72
f 39//72 37//72 41//72
f 38//72 39//72 41//72
f 38//72 41//72 42//72
f 36//112 38//112 42//112
f 36//72 42//72 43//72
f 45//113 36//113 43//113
f 45//72 43//72 44//72
