# Blender v2.63 (sub 0) OBJ File: 'fourmi3.blend'
# www.blender.org
mtllib fourmi3_000021.mtl
o Circle
v 0.935093 4.205409 -4.226844
v 0.939328 4.054722 -4.139948
v 0.930859 4.054722 -4.313740
v 2.919673 6.340135 -3.632626
v 2.949651 6.160226 -3.533175
v 2.889695 6.160226 -3.732076
v 4.362876 4.897264 -5.797431
v 4.413234 4.773869 -5.747037
v 4.312520 4.773869 -5.847826
v -0.687737 4.205414 -4.226849
v -0.691971 4.054728 -4.139953
v -0.683502 4.054728 -4.313744
v -2.406104 6.340140 -3.632630
v -2.436082 6.160231 -3.533180
v -2.376125 6.160231 -3.732081
v -3.849306 4.897268 -5.797438
v -3.899663 4.773872 -5.747043
v -3.798949 4.773872 -5.847832
v 0.671461 4.464221 -1.155991
v 0.782333 4.161387 -1.024652
v 0.637211 4.177710 -1.346251
v 2.428725 4.532115 -2.322901
v 2.487789 4.395490 -2.277163
v 2.415830 4.409078 -2.418755
v 4.599921 0.877471 -3.330914
v 4.606462 0.730435 -3.262594
v 4.582720 0.744622 -3.422485
v -0.268077 4.462382 -1.107905
v -0.342352 4.156048 -0.947363
v -0.197233 4.156021 -1.269831
v -1.672625 3.587248 -2.206160
v -1.723883 3.454382 -2.135392
v -1.634964 3.444772 -2.266228
v -4.069968 0.267589 -3.290735
v -4.113101 0.136290 -3.205705
v -4.050872 0.119664 -3.354639
v 0.598576 4.337995 0.488705
v 0.605447 4.031642 0.665526
v 0.591163 4.031567 0.312042
v 3.226499 3.430534 0.377589
v 3.209522 3.292293 0.455219
v 3.244651 3.292598 0.299713
v 5.977345 0.144218 1.767929
v 5.950952 0.003239 1.843814
v 6.006626 0.004160 1.691400
v -0.154749 4.299834 0.436432
v -0.218068 3.993881 0.590269
v -0.205641 4.018538 0.238430
v -2.871177 4.356716 0.433484
v -2.874517 4.211534 0.490641
v -2.914765 4.238362 0.339296
v -5.684738 0.790310 1.617194
v -5.646656 0.642869 1.673238
v -5.713567 0.659022 1.526295
v 0.581689 4.406290 2.087609
v 0.687905 4.136106 2.289020
v 0.791594 4.156571 1.951859
v 2.242802 4.965371 3.311476
v 2.220413 4.826561 3.376567
v 2.328406 4.849536 3.268608
v 4.007898 1.208119 7.719014
v 3.925453 1.074272 7.758472
v 4.074015 1.062155 7.694670
v 0.035988 4.456237 1.812131
v 0.183605 4.352235 2.116367
v 0.142324 4.121133 1.851689
v -1.488033 3.859256 3.593224
v -1.388386 3.790949 3.694242
v -1.476185 3.705591 3.601170
v -2.908845 0.069337 7.822496
v -2.800722 -0.019762 7.904356
v -2.906527 -0.091936 7.804726
v -0.645418 3.366194 4.557462
v -0.190436 4.296621 4.393403
v 0.831899 4.526418 4.352883
v 1.651748 3.882543 4.466415
v 1.651749 2.849847 4.648508
v 0.831899 2.205972 4.762041
v -0.190436 2.435768 4.721521
v -0.116305 2.995687 5.979355
v 0.139460 3.518721 5.887130
v 0.714160 3.647900 5.864352
v 1.175034 3.285949 5.928174
v 1.175034 2.705425 6.030535
v 0.714161 2.343474 6.094357
v 0.139461 2.472653 6.071580
v 0.053914 4.492867 2.586234
v 0.196450 4.784350 2.534837
v 0.516726 4.856340 2.522144
v 0.773567 4.654628 2.557711
v 0.773567 4.331107 2.614757
v 0.516726 4.129395 2.650324
v 0.196450 4.201385 2.637630
v -0.192505 4.358596 1.799637
v 0.005955 4.770703 1.799637
v 0.451891 4.872485 1.799637
v 0.809504 4.587298 1.799637
v 0.809504 4.129894 1.799637
v 0.451892 3.844707 1.799637
v 0.005955 3.946489 1.799637
v -0.517759 4.505412 -0.402801
v -0.245977 5.069772 -0.402801
v 0.364710 5.209158 -0.402801
v 0.854443 4.818609 -0.402801
v 0.854443 4.192216 -0.402801
v 0.364710 3.801667 -0.402801
v -0.245977 3.941052 -0.402801
v -0.339334 4.554351 -2.474724
v -0.140873 4.966458 -2.474724
v 0.305063 5.068240 -2.474724
v 0.662676 4.783053 -2.474724
v 0.662676 4.325649 -2.474724
v 0.305063 4.040462 -2.474724
v -0.140873 4.142244 -2.474724
v -0.978976 4.448813 -2.554026
v -0.514191 5.203616 -2.554026
v 0.530171 5.390037 -2.554026
v 1.367686 4.867698 -2.554026
v 1.367686 4.029930 -2.554026
v 0.530172 3.507591 -2.554026
v -0.514191 3.694011 -2.554026
v -0.978976 3.923156 -3.947477
v -0.514191 4.677959 -3.947477
v 0.530172 4.864380 -3.947477
v 1.367686 4.342041 -3.947477
v 1.367686 3.504273 -3.947477
v 0.530172 2.981933 -3.947477
v -0.514191 3.168354 -3.947477
v -0.236245 3.215974 -5.035048
v -0.051105 3.516636 -5.035048
v 0.364899 3.590894 -5.035048
v 0.698508 3.382829 -5.035048
v 0.698508 3.049119 -5.035048
v 0.364899 2.841054 -5.035048
v -0.051105 2.915311 -5.035048
vn 0.284839 -0.492894 0.822145
vn -0.589732 0.349383 0.728113
vn 0.739798 -0.658977 -0.135824
vn 0.863405 0.388002 0.322470
vn -0.455725 -0.855931 0.244328
vn 0.545944 -0.482863 0.684682
vn 0.329831 0.489228 -0.807383
vn -0.640291 -0.325827 -0.695603
vn 0.786187 0.600895 0.144343
vn 0.863405 -0.388001 -0.322469
vn -0.455727 0.855931 -0.244326
vn 0.545946 0.482861 -0.684681
vn 0.473732 0.480559 0.737998
vn 0.068461 -0.993004 -0.096210
vn 0.483009 -0.538148 0.690724
vn 0.823996 0.364868 0.433475
vn -0.818006 -0.535372 0.210341
vn -0.474111 -0.483298 0.735963
vn 0.702817 -0.478237 -0.526628
vn -0.321458 0.928535 -0.185709
vn 0.329801 0.481389 -0.812094
vn 0.814142 -0.481937 -0.323898
vn -0.666231 0.617680 -0.417861
vn -0.100116 0.374034 -0.921995
vn 0.204266 0.482748 0.851604
vn -0.271117 -0.962477 -0.011539
vn -0.134242 -0.494987 0.858468
vn 0.112716 0.465213 0.877993
vn -0.704198 -0.678124 -0.210364
vn -0.752081 -0.413417 0.513284
vn -0.004322 -0.423124 -0.906061
vn 0.080903 0.991988 0.097026
vn 0.015377 0.587756 -0.808892
vn 0.057151 -0.354294 -0.933386
vn -0.684309 0.645668 0.338872
vn -0.787421 0.497875 -0.363440
vn -0.634674 0.326357 0.700486
vn 0.357427 -0.930580 0.079161
vn -0.328276 -0.615487 0.716527
vn -0.598432 0.476934 0.643749
vn -0.326881 -0.777400 -0.537399
vn -0.870759 -0.486750 -0.069662
vn -0.048762 -0.929542 -0.365477
vn -0.614108 0.687877 -0.386906
vn -0.692026 -0.233713 -0.682992
vn 0.020233 -0.746283 -0.665321
vn -0.757473 0.590638 0.278174
vn -0.937937 -0.031413 -0.345381
vn -0.941834 -0.058360 -0.330973
vn 0.221632 0.971785 -0.080708
vn 0.787598 -0.457853 -0.412384
vn -0.507215 -0.727350 -0.462272
vn -0.623490 0.770161 -0.134584
vn -0.889910 -0.394923 0.228246
vn 0.173481 -0.857269 -0.484761
vn 0.000000 -0.173648 -0.984808
vn -0.000001 -0.173648 -0.984808
vn -0.893326 0.078039 0.442581
vn 0.140888 0.742302 0.655086
vn 0.900969 -0.427278 0.075422
vn -0.614122 -0.788374 -0.036350
vn -0.414188 0.641280 0.645917
vn -0.730540 -0.448096 -0.515287
vn 0.206664 -0.956074 -0.207875
vn -0.614546 0.760123 -0.211061
vn -0.860009 -0.393032 0.325439
vn 0.220363 -0.974586 -0.040268
vn -0.998978 -0.003293 -0.045079
vn 0.214194 0.920592 -0.326543
vn 0.874087 -0.438844 -0.208298
vn -0.621976 -0.782056 0.039176
vn -0.620705 -0.778339 -0.094410
vn -0.623462 0.781797 0.009401
vn -0.896124 -0.431551 0.103571
vn 0.219800 -0.963006 -0.155909
vn -0.999792 -0.000000 -0.020400
vn 0.222434 0.974550 -0.027849
vn 0.889377 -0.428301 -0.159893
vn 0.221282 0.969501 0.105367
vn 0.898933 -0.432903 0.067187
vn -0.621919 -0.779861 0.070945
vn -0.619882 0.777306 0.107432
vn -0.897513 -0.432220 -0.087499
vn 0.222123 -0.973183 0.059795
vn -0.995744 -0.000000 0.092162
vn -0.111779 -0.000000 -0.993733
vn 0.029993 0.155098 -0.987444
vn 0.143798 -0.081731 -0.986226
vn -0.101824 -0.150698 -0.983322
vn -0.072923 0.107925 -0.991481
vn -0.118345 -0.067264 0.990692
vn 0.050329 -0.260255 -0.964227
vn -0.835328 -0.514370 0.194038
vn 0.164732 -0.922858 0.348134
vn -1.000000 -0.000000 -0.000000
vn 0.164731 0.922858 -0.348134
vn 0.835328 -0.514370 0.194038
vn -0.504003 -0.808114 0.304848
vn -0.504003 0.808114 -0.304848
vn -0.360621 -0.578216 0.731860
vn -0.528963 0.848133 -0.029480
vn -0.827891 -0.509791 -0.233902
vn 0.116686 -0.653695 0.747708
vn -0.851692 -0.000000 0.524042
vn 0.173671 0.972937 -0.152422
vn 0.625885 -0.385401 0.678037
vn 0.000000 -0.000000 1.000000
usemtl Material
s off
f 1//1 3//1 6//1 4//1
f 1//2 2//2 5//2 4//2
f 6//3 5//3 2//3 3//3
f 8//4 7//4 4//4 5//4
f 9//5 8//5 5//5 6//5
f 9//6 7//6 4//6 6//6
f 15//7 13//7 10//7 12//7
f 14//8 13//8 10//8 11//8
f 15//9 14//9 11//9 12//9
f 17//10 16//10 13//10 14//10
f 18//11 17//11 14//11 15//11
f 18//12 16//12 13//12 15//12
f 23//13 22//13 19//13 20//13
f 24//14 23//14 20//14 21//14
f 24//15 22//15 19//15 21//15
f 26//16 25//16 22//16 23//16
f 27//17 26//17 23//17 24//17
f 27//18 25//18 22//18 24//18
f 32//19 31//19 28//19 29//19
f 33//20 32//20 29//20 30//20
f 33//21 31//21 28//21 30//21
f 35//22 34//22 31//22 32//22
f 36//23 35//23 32//23 33//23
f 36//24 34//24 31//24 33//24
f 41//25 40//25 37//25 38//25
f 42//26 41//26 38//26 39//26
f 42//27 40//27 37//27 39//27
f 44//28 43//28 40//28 41//28
f 45//29 44//29 41//29 42//29
f 45//30 43//30 40//30 42//30
f 50//31 49//31 46//31 47//31
f 51//32 50//32 47//32 48//32
f 51//33 49//33 46//33 48//33
f 53//34 52//34 49//34 50//34
f 54//35 53//35 50//35 51//35
f 54//36 52//36 49//36 51//36
f 59//37 58//37 55//37 56//37
f 60//38 59//38 56//38 57//38
f 60//39 58//39 55//39 57//39
f 62//40 61//40 58//40 59//40
f 63//41 62//41 59//41 60//41
f 63//42 61//42 58//42 60//42
f 68//43 67//43 64//43 65//43
f 69//44 68//44 65//44 66//44
f 69//45 67//45 64//45 66//45
f 71//46 70//46 67//46 68//46
f 72//47 71//47 68//47 69//47
f 72//48 70//48 67//48 69//48
f 84//49 83//49 76//49 77//49
f 86//50 85//50 78//50 79//50
f 81//51 80//51 73//51 74//51
f 83//52 82//52 75//52 76//52
f 85//53 84//53 77//53 78//53
f 86//54 80//54 73//54 79//54
f 82//55 81//55 74//55 75//55
f 81//56 86//56 80//56
f 81//57 82//57 86//57
f 82//57 85//57 86//57
f 82//56 83//56 85//56
f 83//57 84//57 85//57
f 77//58 76//58 90//58 91//58
f 79//59 78//59 92//59 93//59
f 74//60 73//60 87//60 88//60
f 76//61 75//61 89//61 90//61
f 78//62 77//62 91//62 92//62
f 79//63 73//63 87//63 93//63
f 75//64 74//64 88//64 89//64
f 92//65 91//65 98//65 99//65
f 93//66 87//66 94//66 100//66
f 89//67 88//67 95//67 96//67
f 91//68 90//68 97//68 98//68
f 93//69 92//69 99//69 100//69
f 88//70 87//70 94//70 95//70
f 90//71 89//71 96//71 97//71
f 97//72 96//72 103//72 104//72
f 99//73 98//73 105//73 106//73
f 100//74 94//74 101//74 107//74
f 96//75 95//75 102//75 103//75
f 98//76 97//76 104//76 105//76
f 100//77 99//77 106//77 107//77
f 95//78 94//78 101//78 102//78
f 107//79 106//79 113//79 114//79
f 102//80 101//80 108//80 109//80
f 104//81 103//81 110//81 111//81
f 106//82 105//82 112//82 113//82
f 107//83 101//83 108//83 114//83
f 103//84 102//84 109//84 110//84
f 105//85 104//85 111//85 112//85
f 112//86 111//86 118//86 119//86
f 114//87 113//87 120//87 121//87
f 109//88 108//88 115//88 116//88
f 111//89 110//89 117//89 118//89
f 113//90 112//90 119//90 120//90
f 114//91 108//91 115//91 121//91
f 110//92 109//92 116//92 117//92
f 121//93 115//93 122//93 128//93
f 117//94 116//94 123//94 124//94
f 119//95 118//95 125//95 126//95
f 121//96 120//96 127//96 128//96
f 116//97 115//97 122//97 123//97
f 118//98 117//98 124//98 125//98
f 120//99 119//99 126//99 127//99
f 125//100 124//100 131//100 132//100
f 127//101 126//101 133//101 134//101
f 128//102 122//102 129//102 135//102
f 124//103 123//103 130//103 131//103
f 126//104 125//104 132//104 133//104
f 128//105 127//105 134//105 135//105
f 123//106 122//106 129//106 130//106
f 130//107 129//107 135//107
f 131//107 130//107 135//107
f 131//107 135//107 134//107
f 131//107 134//107 132//107
f 134//107 133//107 132//107
